<?xml version="1.0" encoding="UTF-8"?>
<svg version="1.1" xmlns="http://www.w3.org/2000/svg" width="762" height="764">
<path d="M0 0 C11.22 0 22.44 0 34 0 C34 0.66 34 1.32 34 2 C148.84 2 263.68 2 382 2 C382 2.66 382 3.32 382 4 C384.64 4 387.28 4 390 4 C390 4.66 390 5.32 390 6 C392.64 6 395.28 6 398 6 C398 6.66 398 7.32 398 8 C399.98 8 401.96 8 404 8 C404 8.66 404 9.32 404 10 C405.98 10 407.96 10 410 10 C410 10.66 410 11.32 410 12 C411.32 12 412.64 12 414 12 C414 12.66 414 13.32 414 14 C415.32 14 416.64 14 418 14 C418 14.66 418 15.32 418 16 C419.32 16 420.64 16 422 16 C422 16.66 422 17.32 422 18 C423.32 18 424.64 18 426 18 C426 18.66 426 19.32 426 20 C426.66 20 427.32 20 428 20 C428 20.66 428 21.32 428 22 C429.32 22 430.64 22 432 22 C432 22.66 432 23.32 432 24 C432.66 24 433.32 24 434 24 C434 24.66 434 25.32 434 26 C434.66 26 435.32 26 436 26 C436 26.66 436 27.32 436 28 C436.66 28 437.32 28 438 28 C438 28.66 438 29.32 438 30 C438.66 30 439.32 30 440 30 C440 30.66 440 31.32 440 32 C440.66 32 441.32 32 442 32 C442 32.66 442 33.32 442 34 C442.66 34 443.32 34 444 34 C444 34.66 444 35.32 444 36 C444.66 36 445.32 36 446 36 C446 36.66 446 37.32 446 38 C446.66 38 447.32 38 448 38 C448 38.66 448 39.32 448 40 C448.66 40 449.32 40 450 40 C450 40.66 450 41.32 450 42 C450.66 42 451.32 42 452 42 C452 42.66 452 43.32 452 44 C452.66 44 453.32 44 454 44 C454 44.66 454 45.32 454 46 C454.66 46 455.32 46 456 46 C456 46.66 456 47.32 456 48 C456.66 48 457.32 48 458 48 C458 49.32 458 50.64 458 52 C458.66 52 459.32 52 460 52 C460 52.66 460 53.32 460 54 C460.66 54 461.32 54 462 54 C462 55.32 462 56.64 462 58 C462.66 58 463.32 58 464 58 C464 59.32 464 60.64 464 62 C464.66 62 465.32 62 466 62 C466 63.32 466 64.64 466 66 C466.66 66 467.32 66 468 66 C468 67.32 468 68.64 468 70 C468.66 70 469.32 70 470 70 C470 71.32 470 72.64 470 74 C470.66 74 471.32 74 472 74 C472 76.64 472 79.28 472 82 C472.66 82 473.32 82 474 82 C474 83.98 474 85.96 474 88 C474.66 88 475.32 88 476 88 C476 91.3 476 94.6 476 98 C476.66 98 477.32 98 478 98 C478 286.1 478 474.2 478 668 C477.34 668 476.68 668 476 668 C476 670.64 476 673.28 476 676 C475.34 676 474.68 676 474 676 C474 678.64 474 681.28 474 684 C473.34 684 472.68 684 472 684 C472 685.98 472 687.96 472 690 C471.34 690 470.68 690 470 690 C470 691.98 470 693.96 470 696 C469.34 696 468.68 696 468 696 C468 697.32 468 698.64 468 700 C467.34 700 466.68 700 466 700 C466 701.32 466 702.64 466 704 C465.34 704 464.68 704 464 704 C464 705.32 464 706.64 464 708 C463.34 708 462.68 708 462 708 C462 709.32 462 710.64 462 712 C461.34 712 460.68 712 460 712 C460 712.66 460 713.32 460 714 C459.34 714 458.68 714 458 714 C458 715.32 458 716.64 458 718 C457.34 718 456.68 718 456 718 C456 718.66 456 719.32 456 720 C455.34 720 454.68 720 454 720 C454 720.66 454 721.32 454 722 C453.34 722 452.68 722 452 722 C452 722.66 452 723.32 452 724 C451.34 724 450.68 724 450 724 C450 724.66 450 725.32 450 726 C449.34 726 448.68 726 448 726 C448 726.66 448 727.32 448 728 C447.34 728 446.68 728 446 728 C446 728.66 446 729.32 446 730 C445.34 730 444.68 730 444 730 C444 730.66 444 731.32 444 732 C443.34 732 442.68 732 442 732 C442 732.66 442 733.32 442 734 C441.34 734 440.68 734 440 734 C440 734.66 440 735.32 440 736 C439.34 736 438.68 736 438 736 C438 736.66 438 737.32 438 738 C437.34 738 436.68 738 436 738 C436 738.66 436 739.32 436 740 C435.34 740 434.68 740 434 740 C434 740.66 434 741.32 434 742 C433.34 742 432.68 742 432 742 C432 742.66 432 743.32 432 744 C430.68 744 429.36 744 428 744 C428 744.66 428 745.32 428 746 C426.68 746 425.36 746 424 746 C424 746.66 424 747.32 424 748 C423.34 748 422.68 748 422 748 C422 748.66 422 749.32 422 750 C420.68 750 419.36 750 418 750 C418 750.66 418 751.32 418 752 C416.68 752 415.36 752 414 752 C414 752.66 414 753.32 414 754 C412.68 754 411.36 754 410 754 C410 754.66 410 755.32 410 756 C408.02 756 406.04 756 404 756 C404 756.66 404 757.32 404 758 C402.02 758 400.04 758 398 758 C398 758.66 398 759.32 398 760 C395.36 760 392.72 760 390 760 C390 760.66 390 761.32 390 762 C386.7 762 383.4 762 380 762 C380 762.66 380 763.32 380 764 C193.22 764 6.44 764 -186 764 C-186 763.34 -186 762.68 -186 762 C-189.3 762 -192.6 762 -196 762 C-196 761.34 -196 760.68 -196 760 C-198.64 760 -201.28 760 -204 760 C-204 759.34 -204 758.68 -204 758 C-205.98 758 -207.96 758 -210 758 C-210 757.34 -210 756.68 -210 756 C-211.98 756 -213.96 756 -216 756 C-216 755.34 -216 754.68 -216 754 C-217.32 754 -218.64 754 -220 754 C-220 753.34 -220 752.68 -220 752 C-221.32 752 -222.64 752 -224 752 C-224 751.34 -224 750.68 -224 750 C-225.32 750 -226.64 750 -228 750 C-228 749.34 -228 748.68 -228 748 C-229.32 748 -230.64 748 -232 748 C-232 747.34 -232 746.68 -232 746 C-232.66 746 -233.32 746 -234 746 C-234 745.34 -234 744.68 -234 744 C-235.32 744 -236.64 744 -238 744 C-238 743.34 -238 742.68 -238 742 C-238.66 742 -239.32 742 -240 742 C-240 741.34 -240 740.68 -240 740 C-240.66 740 -241.32 740 -242 740 C-242 739.34 -242 738.68 -242 738 C-243.32 738 -244.64 738 -246 738 C-246 737.34 -246 736.68 -246 736 C-246.66 736 -247.32 736 -248 736 C-248 735.34 -248 734.68 -248 734 C-248.66 734 -249.32 734 -250 734 C-250 733.34 -250 732.68 -250 732 C-250.66 732 -251.32 732 -252 732 C-252 731.34 -252 730.68 -252 730 C-252.66 730 -253.32 730 -254 730 C-254 729.34 -254 728.68 -254 728 C-254.66 728 -255.32 728 -256 728 C-256 727.34 -256 726.68 -256 726 C-256.66 726 -257.32 726 -258 726 C-258 725.34 -258 724.68 -258 724 C-258.66 724 -259.32 724 -260 724 C-260 722.68 -260 721.36 -260 720 C-260.66 720 -261.32 720 -262 720 C-262 719.34 -262 718.68 -262 718 C-262.66 718 -263.32 718 -264 718 C-264 716.68 -264 715.36 -264 714 C-264.66 714 -265.32 714 -266 714 C-266 713.34 -266 712.68 -266 712 C-266.66 712 -267.32 712 -268 712 C-268 710.68 -268 709.36 -268 708 C-268.66 708 -269.32 708 -270 708 C-270 706.68 -270 705.36 -270 704 C-270.66 704 -271.32 704 -272 704 C-272 702.68 -272 701.36 -272 700 C-272.66 700 -273.32 700 -274 700 C-274 698.68 -274 697.36 -274 696 C-274.66 696 -275.32 696 -276 696 C-276 694.02 -276 692.04 -276 690 C-276.66 690 -277.32 690 -278 690 C-278 688.02 -278 686.04 -278 684 C-278.66 684 -279.32 684 -280 684 C-280 681.36 -280 678.72 -280 676 C-280.66 676 -281.32 676 -282 676 C-282 672.7 -282 669.4 -282 666 C-282.66 666 -283.32 666 -284 666 C-284 478.56 -284 291.12 -284 98 C-283.34 98 -282.68 98 -282 98 C-282 95.36 -282 92.72 -282 90 C-281.34 90 -280.68 90 -280 90 C-280 87.36 -280 84.72 -280 82 C-279.34 82 -278.68 82 -278 82 C-278 80.02 -278 78.04 -278 76 C-277.34 76 -276.68 76 -276 76 C-276 74.02 -276 72.04 -276 70 C-275.34 70 -274.68 70 -274 70 C-274 68.68 -274 67.36 -274 66 C-273.34 66 -272.68 66 -272 66 C-272 64.68 -272 63.36 -272 62 C-271.34 62 -270.68 62 -270 62 C-270 60.68 -270 59.36 -270 58 C-269.34 58 -268.68 58 -268 58 C-268 56.68 -268 55.36 -268 54 C-267.34 54 -266.68 54 -266 54 C-266 53.34 -266 52.68 -266 52 C-265.34 52 -264.68 52 -264 52 C-264 50.68 -264 49.36 -264 48 C-263.34 48 -262.68 48 -262 48 C-262 47.34 -262 46.68 -262 46 C-261.34 46 -260.68 46 -260 46 C-260 45.34 -260 44.68 -260 44 C-259.34 44 -258.68 44 -258 44 C-258 43.34 -258 42.68 -258 42 C-257.34 42 -256.68 42 -256 42 C-256 41.34 -256 40.68 -256 40 C-255.34 40 -254.68 40 -254 40 C-254 39.34 -254 38.68 -254 38 C-253.34 38 -252.68 38 -252 38 C-252 37.34 -252 36.68 -252 36 C-251.34 36 -250.68 36 -250 36 C-250 35.34 -250 34.68 -250 34 C-249.34 34 -248.68 34 -248 34 C-248 33.34 -248 32.68 -248 32 C-247.34 32 -246.68 32 -246 32 C-246 31.34 -246 30.68 -246 30 C-245.34 30 -244.68 30 -244 30 C-244 29.34 -244 28.68 -244 28 C-243.34 28 -242.68 28 -242 28 C-242 27.34 -242 26.68 -242 26 C-241.34 26 -240.68 26 -240 26 C-240 25.34 -240 24.68 -240 24 C-239.34 24 -238.68 24 -238 24 C-238 23.34 -238 22.68 -238 22 C-236.68 22 -235.36 22 -234 22 C-234 21.34 -234 20.68 -234 20 C-233.34 20 -232.68 20 -232 20 C-232 19.34 -232 18.68 -232 18 C-230.68 18 -229.36 18 -228 18 C-228 17.34 -228 16.68 -228 16 C-226.68 16 -225.36 16 -224 16 C-224 15.34 -224 14.68 -224 14 C-222.68 14 -221.36 14 -220 14 C-220 13.34 -220 12.68 -220 12 C-218.02 12 -216.04 12 -214 12 C-214 11.34 -214 10.68 -214 10 C-212.68 10 -211.36 10 -210 10 C-210 9.34 -210 8.68 -210 8 C-208.02 8 -206.04 8 -204 8 C-204 7.34 -204 6.68 -204 6 C-201.36 6 -198.72 6 -196 6 C-196 5.34 -196 4.68 -196 4 C-192.04 4 -188.08 4 -184 4 C-184 3.34 -184 2.68 -184 2 C-123.28 2 -62.56 2 0 2 C0 1.34 0 0.68 0 0 Z " fill="#235A94" transform="translate(284,0)"/>
<path d="M0 0 C1.91630673 0.75091918 3.83292131 1.50105381 5.75 2.25 C8.57567381 3.37631753 11.29371983 4.61028856 14 6 C14 6.66 14 7.32 14 8 C14.87785156 8.26296875 15.75570312 8.5259375 16.66015625 8.796875 C28.73231762 13.14567699 38.02179789 23.21134734 47 32 C47.89803345 32.85537354 47.89803345 32.85537354 48.81420898 33.72802734 C52.89611316 37.67725436 56.27068576 41.79028849 59.4375 46.5 C59.90559082 47.1914209 60.37368164 47.8828418 60.85595703 48.59521484 C78.76972928 75.5056544 86.85568079 107.31390767 80.6875 139.5 C80.15747626 141.6748392 79.59799217 143.84285929 79 146 C78.74863281 146.99773437 78.49726563 147.99546875 78.23828125 149.0234375 C77.54419454 151.70430153 76.81018507 154.35189509 76 157 C75.80736572 157.65871094 75.61473145 158.31742188 75.41625977 158.99609375 C73.60355461 164.86617029 71.05680841 169.97024736 67.9375 175.25 C67.45289307 176.07628906 66.96828613 176.90257812 66.46899414 177.75390625 C62.15557795 184.97545642 57.41292667 191.55973956 52 198 C51.22269531 198.94101562 50.44539062 199.88203125 49.64453125 200.8515625 C32.35086609 220.88174564 7.37060972 234.30622311 -18 241 C-19.16660156 241.37125 -20.33320313 241.7425 -21.53515625 242.125 C-34.02113845 245.76850175 -46.61696568 245.28016343 -59.49633789 244.94042969 C-60.26605927 244.92517746 -61.03578064 244.90992523 -61.8288269 244.89421082 C-63.2789107 244.86414568 -64.72880977 244.82105462 -66.17800903 244.76216125 C-73.24058879 244.6240907 -78.48536915 247.58209202 -84.46875 250.99609375 C-85.45230469 251.55490234 -86.43585938 252.11371094 -87.44921875 252.68945312 C-88.45597656 253.26630859 -89.46273437 253.84316406 -90.5 254.4375 C-92.01013672 255.29698242 -92.01013672 255.29698242 -93.55078125 256.17382812 C-98.89436353 259.21080667 -98.89436353 259.21080667 -104.20703125 262.30126953 C-108.79879458 265 -108.79879458 265 -111 265 C-111 265.66 -111 266.32 -111 267 C-112.07121094 267.56589844 -113.14242187 268.13179688 -114.24609375 268.71484375 C-115.6432798 269.45563367 -117.04041247 270.19652429 -118.4375 270.9375 C-119.49807617 271.49727539 -119.49807617 271.49727539 -120.58007812 272.06835938 C-124.00478658 273.72492335 -124.00478658 273.72492335 -127 276 C-130.25 276.4375 -130.25 276.4375 -134 276 C-137.22628628 273.29603709 -138.73465375 271.59102849 -139.43228149 267.40802002 C-139.57923089 264.20031527 -139.56170324 261.03056565 -139.48828125 257.8203125 C-139.48120651 256.6524118 -139.47413177 255.48451111 -139.46684265 254.28121948 C-139.43892017 250.56182007 -139.37618052 246.84394217 -139.3125 243.125 C-139.28741459 240.59898012 -139.26460185 238.07293657 -139.24414062 235.546875 C-139.18910025 229.36406679 -139.10549322 223.18214211 -139 217 C-139.79038666 216.69660706 -140.58077332 216.39321411 -141.39511108 216.08062744 C-143.91764468 215.03416476 -145.25332462 214.13192671 -147.1640625 212.234375 C-147.72327393 211.68152832 -148.28248535 211.12868164 -148.85864258 210.55908203 C-149.44154053 209.96208496 -150.02443848 209.36508789 -150.625 208.75 C-151.23819092 208.12593262 -151.85138184 207.50186523 -152.4831543 206.85888672 C-167.52528402 191.29914053 -179.39469216 172.70509958 -186 152 C-186.37640625 150.85660156 -186.7528125 149.71320313 -187.140625 148.53515625 C-193.79797006 126.1163306 -193.05982403 93.30372017 -182.00366211 72.08813477 C-181.01662838 70.38379452 -180.00912656 68.69135297 -179 67 C-178.41009633 65.65754431 -177.84302366 64.3045107 -177.3125 62.9375 C-172.48854743 51.89517106 -165.21988582 42.6887006 -157 34 C-155.97126181 32.77744157 -154.94958256 31.54888193 -153.9375 30.3125 C-135.49170196 8.74200393 -103.16408464 -6.84712366 -75.14208984 -9.76855469 C-48.80299278 -11.70868398 -24.5546178 -10.17184613 0 0 Z " fill="#225A95" transform="translate(324,124)"/>
<path d="M0 0 C23.47845127 -0.16353661 46.95681716 -0.28696857 70.4357233 -0.3626852 C81.33746952 -0.39877661 92.23886181 -0.4479802 103.14038086 -0.52807617 C112.64239486 -0.59785636 122.14415254 -0.64300995 131.64641565 -0.65861946 C136.6777424 -0.66774383 141.70833589 -0.68917978 146.73942757 -0.7401104 C151.47641941 -0.78767464 156.212377 -0.80227079 160.94958496 -0.79175377 C162.68665122 -0.79367731 164.42375255 -0.80757277 166.16061211 -0.83443832 C179.26698406 -1.0271979 179.26698406 -1.0271979 183.53928947 1.50509453 C185.32167456 3.2490459 186.65444852 4.90945908 188 7 C188.80824219 8.00160156 189.61648438 9.00320312 190.44921875 10.03515625 C191.55716797 11.53369141 191.55716797 11.53369141 192.6875 13.0625 C196.79341437 18.53012268 201.13088142 23.74236318 205.6081543 28.90844727 C209.36821795 33.24921107 213.01778015 37.66694279 216.62890625 42.1328125 C218.4419013 44.32513271 220.27823176 46.47806655 222.15234375 48.6171875 C222.69632813 49.24044922 223.2403125 49.86371094 223.80078125 50.50585938 C224.86668346 51.72312479 225.9380465 52.93563686 227.015625 54.14257812 C232.56821915 60.49363239 233.57711718 66.62803131 234.85546875 74.76171875 C235.51585015 78.77371328 236.38507647 82.24296715 238 86 C239.51023558 94.91038991 239.08746306 103.99130515 239 113 C238.34 113 237.68 113 237 113 C236.88914062 113.73347656 236.77828125 114.46695313 236.6640625 115.22265625 C234.64482706 123.66781154 227.81312199 129.94312906 220.73046875 134.44140625 C216.62509701 136.83110025 213.7744473 138.04511054 209 139 C208.67 186.85 208.34 234.7 208 284 C215.59 284 223.18 284 231 284 C231 289.94 231 295.88 231 302 C126.06 302 21.12 302 -87 302 C-87 296.06 -87 290.12 -87 284 C-79.41 284 -71.82 284 -64 284 C-64 271.79 -64 259.58 -64 247 C-62.02 248.32 -60.04 249.64 -58 251 C-56.94039063 251.33257812 -55.88078125 251.66515625 -54.7890625 252.0078125 C-50.98659353 253.35041266 -48.1492298 254.53428608 -46 258 C-45.29096054 262.44968356 -45.47192528 266.81343204 -45.6484375 271.3046875 C-45.67381592 272.522771 -45.69919434 273.74085449 -45.7253418 274.99584961 C-45.79155123 277.99881519 -45.88398695 280.99861343 -46 284 C-44.97349335 283.98223511 -43.94698669 283.96447021 -42.88937378 283.94616699 C-33.20827597 283.78388592 -23.52745456 283.66401992 -13.84530449 283.58550262 C-8.86764655 283.54377762 -3.89108778 283.48720049 1.0859375 283.39648438 C5.8906112 283.30945933 10.69422891 283.26170563 15.49962997 283.24098206 C17.33137513 283.22621746 19.16306343 283.19738344 20.99435806 283.15415955 C35.39970075 282.82772246 35.39970075 282.82772246 39.41395569 285.76831055 C40.93328769 287.7947917 41.95737634 289.70387093 43 292 C48.12809236 296.4351069 53.66369548 297.84220359 60.3671875 297.46875 C67.97581717 296.11409783 72.3808609 290.96635011 76.91015625 285.046875 C79.84210161 280.77226308 82.48373391 276.34020011 85.03100586 271.82666016 C85.96959492 270.18745202 86.9787758 268.5890418 88 267 C88.66 267 89.32 267 90 267 C90 272.61 90 278.22 90 284 C109.8 284 129.6 284 150 284 C150 248.69 150 213.38 150 177 C130.2 177 110.4 177 90 177 C90 189.54 90 202.08 90 215 C88.68 214.67 87.36 214.34 86 214 C86 213.34 86 212.68 86 212 C85.0409375 211.8453125 85.0409375 211.8453125 84.0625 211.6875 C81.38682816 211.08683897 78.9020144 210.33404476 76.30859375 209.45703125 C75.50091553 209.18479736 74.6932373 208.91256348 73.86108398 208.63208008 C73.24692627 208.42349365 72.63276855 208.21490723 72 208 C71.89858537 201.66468985 71.82852886 195.32958898 71.78027344 188.99365234 C71.76015724 186.83829933 71.73286075 184.68300089 71.69824219 182.52783203 C71.64972514 179.42987605 71.62703127 176.33264154 71.609375 173.234375 C71.58872986 172.27070007 71.56808472 171.30702515 71.54681396 170.31414795 C71.54651184 169.41351624 71.54620972 168.51288452 71.54589844 167.58496094 C71.53701599 166.79442322 71.52813354 166.0038855 71.51898193 165.18939209 C72.22831242 161.96081782 73.29311146 160.89499082 76 159 C78.91775082 158.60029885 81.45938292 158.44253844 84.37695312 158.46655273 C85.2196727 158.45793716 86.06239227 158.44932159 86.9306488 158.44044495 C89.71449552 158.41775377 92.49733822 158.42452904 95.28125 158.43359375 C97.2165151 158.42835979 99.15177763 158.42208416 101.08703613 158.41481018 C105.14229337 158.40440034 109.19719982 158.40897619 113.25244141 158.42358398 C118.45155313 158.44077836 123.64956041 158.41727156 128.84854889 158.38209438 C132.84457739 158.36014461 136.84034059 158.36155589 140.83641052 158.3698597 C142.75338452 158.37068044 144.67037776 158.36379366 146.58729553 158.34908867 C149.2665722 158.33168586 151.94385098 158.34614816 154.62304688 158.36889648 C155.41589584 158.35720428 156.20874481 158.34551208 157.02561951 158.33346558 C160.52679562 158.39401055 162.640412 158.73836391 165.49517822 160.81549072 C167.79769362 165.68808213 167.52344568 170.25934279 167.45410156 175.58325195 C167.45468567 176.75441055 167.45526978 177.92556915 167.45587158 179.13221741 C167.45308609 183.0012074 167.42197016 186.86942592 167.390625 190.73828125 C167.38316427 193.42157801 167.37727379 196.10483211 167.37347412 198.78813171 C167.36105297 205.12755614 167.32824335 211.46670389 167.28807616 217.80600661 C167.24333138 225.02480943 167.22136466 232.24362562 167.20129442 239.46253264 C167.15950966 254.30852778 167.08616835 269.15418799 167 284 C174.59 284 182.18 284 190 284 C190 235.82 190 187.64 190 138 C185.545 136.515 185.545 136.515 181 135 C178.44140625 133.53515625 178.44140625 133.53515625 176.5625 132.0625 C175.92441406 131.57910156 175.28632812 131.09570312 174.62890625 130.59765625 C172.86209501 128.86474067 171.97185061 127.26113986 171 125 C170.01 125 169.02 125 168 125 C167.814375 125.556875 167.62875 126.11375 167.4375 126.6875 C165.35889174 130.03134807 162.39186398 132.04807828 159 134 C158.34 134 157.68 134 157 134 C157 134.66 157 135.32 157 136 C148.36503401 141.11701689 139.74219996 140.59308802 130 140 C129.01 139.67 128.02 139.34 127 139 C127 138.34 127 137.68 127 137 C125.700625 136.835 124.40125 136.67 123.0625 136.5 C117.06311502 135.20489467 112.99391893 131.53210659 109 127 C109 126.34 109 125.68 109 125 C105.95553742 126.66061595 103.41556488 128.48007778 100.875 130.8125 C91.99983545 138.3791467 84.54246957 141.01051404 73.0234375 140.3828125 C63.44244211 139.58625041 56.3403198 136.26284167 49 130 C47.21484375 127.77734375 47.21484375 127.77734375 46 126 C43.14053687 127.30825111 40.99552749 128.74875033 38.6875 130.875 C34.69392836 134.37903705 30.50751248 138 25 138 C26.57797571 127.51773277 29.23183265 115.53633469 34 106 C34.44982116 97.70652922 33.79531194 89.38884565 33.125 81.125 C33.04636719 80.03703125 32.96773438 78.9490625 32.88671875 77.828125 C32.46536118 72.52550202 31.74840798 68.0395289 30 63 C30 60.69 30 58.38 30 56 C87.09 55.67 144.18 55.34 203 55 C193.66316599 43.32155475 193.66316599 43.32155475 183.84410858 32.14870739 C182 30 182 30 180.21552277 27.22413349 C177.22293686 22.79740351 174.90118452 19.5509657 169.63804626 18.02570152 C165.49656932 17.70481325 161.48691684 17.73080718 157.34179688 17.8815918 C155.76892838 17.89777495 154.19600071 17.90887708 152.62306213 17.91531372 C149.24975143 17.9389487 145.87932855 17.9962451 142.50697327 18.07968712 C137.16896046 18.2095894 131.83242909 18.25146411 126.49304199 18.27973938 C113.2364329 18.36345732 99.98180579 18.56128335 86.72686768 18.78369141 C76.416186 18.95546825 66.1071887 19.09515901 55.79506922 19.13889819 C50.49184789 19.16500011 45.19515527 19.25670013 39.89383698 19.39893568 C36.59027042 19.4732343 33.28828312 19.48884509 29.98396111 19.48868179 C28.45863775 19.50042788 26.9332708 19.53612352 25.40916634 19.59821129 C20.67111377 19.78349361 16.50589708 19.69291938 12 18 C8.76433316 14.9595011 6.71556675 11.22106625 4.71123505 7.30250263 C3.28857278 4.55691494 2.25947224 2.99395452 0 1 C0 0.67 0 0.34 0 0 Z " fill="#F7F9FA" transform="translate(389,152)"/>
<path d="M0 0 C1.91630673 0.75091918 3.83292131 1.50105381 5.75 2.25 C8.57567381 3.37631753 11.29371983 4.61028856 14 6 C14 6.66 14 7.32 14 8 C14.87785156 8.26296875 15.75570312 8.5259375 16.66015625 8.796875 C28.73231762 13.14567699 38.02179789 23.21134734 47 32 C47.89803345 32.85537354 47.89803345 32.85537354 48.81420898 33.72802734 C52.89611316 37.67725436 56.27068576 41.79028849 59.4375 46.5 C59.90559082 47.1914209 60.37368164 47.8828418 60.85595703 48.59521484 C78.76972928 75.5056544 86.85568079 107.31390767 80.6875 139.5 C80.15747626 141.6748392 79.59799217 143.84285929 79 146 C78.74863281 146.99773437 78.49726563 147.99546875 78.23828125 149.0234375 C77.54419454 151.70430153 76.81018507 154.35189509 76 157 C75.80736572 157.65871094 75.61473145 158.31742188 75.41625977 158.99609375 C73.60355461 164.86617029 71.05680841 169.97024736 67.9375 175.25 C67.45289307 176.07628906 66.96828613 176.90257812 66.46899414 177.75390625 C62.15557795 184.97545642 57.41292667 191.55973956 52 198 C51.22269531 198.94101562 50.44539062 199.88203125 49.64453125 200.8515625 C32.35086609 220.88174564 7.37060972 234.30622311 -18 241 C-19.16660156 241.37125 -20.33320313 241.7425 -21.53515625 242.125 C-34.02113845 245.76850175 -46.61696568 245.28016343 -59.49633789 244.94042969 C-60.26605927 244.92517746 -61.03578064 244.90992523 -61.8288269 244.89421082 C-63.2789107 244.86414568 -64.72880977 244.82105462 -66.17800903 244.76216125 C-73.24058879 244.6240907 -78.48536915 247.58209202 -84.46875 250.99609375 C-85.45230469 251.55490234 -86.43585938 252.11371094 -87.44921875 252.68945312 C-88.45597656 253.26630859 -89.46273437 253.84316406 -90.5 254.4375 C-92.01013672 255.29698242 -92.01013672 255.29698242 -93.55078125 256.17382812 C-98.89436353 259.21080667 -98.89436353 259.21080667 -104.20703125 262.30126953 C-108.79879458 265 -108.79879458 265 -111 265 C-111 265.66 -111 266.32 -111 267 C-112.07121094 267.56589844 -113.14242187 268.13179688 -114.24609375 268.71484375 C-115.6432798 269.45563367 -117.04041247 270.19652429 -118.4375 270.9375 C-119.49807617 271.49727539 -119.49807617 271.49727539 -120.58007812 272.06835938 C-124.00478658 273.72492335 -124.00478658 273.72492335 -127 276 C-130.25 276.4375 -130.25 276.4375 -134 276 C-137.22628628 273.29603709 -138.73465375 271.59102849 -139.43228149 267.40802002 C-139.57923089 264.20031527 -139.56170324 261.03056565 -139.48828125 257.8203125 C-139.48120651 256.6524118 -139.47413177 255.48451111 -139.46684265 254.28121948 C-139.43892017 250.56182007 -139.37618052 246.84394217 -139.3125 243.125 C-139.28741459 240.59898012 -139.26460185 238.07293657 -139.24414062 235.546875 C-139.18910025 229.36406679 -139.10549322 223.18214211 -139 217 C-139.79038666 216.69660706 -140.58077332 216.39321411 -141.39511108 216.08062744 C-143.91764468 215.03416476 -145.25332462 214.13192671 -147.1640625 212.234375 C-147.72327393 211.68152832 -148.28248535 211.12868164 -148.85864258 210.55908203 C-149.44154053 209.96208496 -150.02443848 209.36508789 -150.625 208.75 C-151.23819092 208.12593262 -151.85138184 207.50186523 -152.4831543 206.85888672 C-167.52528402 191.29914053 -179.39469216 172.70509958 -186 152 C-186.37640625 150.85660156 -186.7528125 149.71320313 -187.140625 148.53515625 C-193.79797006 126.1163306 -193.05982403 93.30372017 -182.00366211 72.08813477 C-181.01662838 70.38379452 -180.00912656 68.69135297 -179 67 C-178.41009633 65.65754431 -177.84302366 64.3045107 -177.3125 62.9375 C-172.48854743 51.89517106 -165.21988582 42.6887006 -157 34 C-155.97126181 32.77744157 -154.94958256 31.54888193 -153.9375 30.3125 C-135.49170196 8.74200393 -103.16408464 -6.84712366 -75.14208984 -9.76855469 C-48.80299278 -11.70868398 -24.5546178 -10.17184613 0 0 Z M-101 16 C-102.57876649 16.59558257 -104.16119419 17.18174099 -105.75 17.75 C-116.26799542 21.9310665 -125.45640752 28.68289388 -134 36 C-134.82113281 36.68707031 -135.64226562 37.37414062 -136.48828125 38.08203125 C-154.98895744 54.05073309 -169.88739459 78.23345139 -172 103 C-173.15377944 125.35126078 -171.054713 144.91281895 -161 165 C-160.56171875 165.94746094 -160.1234375 166.89492188 -159.671875 167.87109375 C-152.8299394 181.7404391 -141.08950537 194.80134244 -128.625 203.875 C-123.02777778 207.97222222 -123.02777778 207.97222222 -122 209 C-121.83958807 212.10085221 -121.74036598 215.18187579 -121.68359375 218.28515625 C-121.66281265 219.21597519 -121.64203156 220.14679413 -121.62062073 221.1058197 C-121.55502069 224.09130182 -121.49619198 227.07687484 -121.4375 230.0625 C-121.3943247 232.08138976 -121.35071075 234.1002702 -121.30664062 236.11914062 C-121.19932871 241.07933297 -121.09809112 246.03961709 -121 251 C-117.18465663 249.57735172 -113.76490498 247.81438954 -110.24609375 245.76953125 C-109.14330078 245.13080078 -108.04050781 244.49207031 -106.90429688 243.83398438 C-105.74865636 243.16022753 -104.59305752 242.48639918 -103.4375 241.8125 C-102.32052734 241.16474609 -101.20355469 240.51699219 -100.05273438 239.84960938 C-98.94091797 239.20443359 -97.82910156 238.55925781 -96.68359375 237.89453125 C-95.55397217 237.25322266 -94.42435059 236.61191406 -93.26049805 235.95117188 C-90.01879902 234.08693897 -90.01879902 234.08693897 -87.26489258 231.95507812 C-77.52511971 225.01921903 -67.22980829 226.38463467 -55.8125 226.875 C-41.45441961 227.44520637 -29.54888056 226.99911899 -16 222 C-13.94304253 221.2951407 -11.88283496 220.60053266 -9.82194519 219.90727234 C7.65360429 213.81200603 24.83265976 203.05878292 37 189 C37.73089844 188.17242187 38.46179688 187.34484375 39.21484375 186.4921875 C50.91414437 172.33473998 60.02805659 155.21105751 63 137 C63.18820312 135.88367188 63.37640625 134.76734375 63.5703125 133.6171875 C66.96654086 105.02711971 60.40665702 76.51639288 42.625 53.6875 C33.47088177 42.33620439 22.87537674 32.06926881 10 25 C9.34 25 8.68 25 8 25 C8 24.34 8 23.68 8 23 C-25.24312712 5.86436746 -66.04156629 -0.63228573 -101 16 Z " fill="#F7F9FA" transform="translate(324,124)"/>
<path d="M0 0 C10.56 0 21.12 0 32 0 C32 17.16 32 34.32 32 52 C50.48 52 68.96 52 88 52 C88 34.84 88 17.68 88 0 C98.56 0 109.12 0 120 0 C120 44.22 120 88.44 120 134 C109.44 134 98.88 134 88 134 C88 115.85 88 97.7 88 79 C69.52 79 51.04 79 32 79 C32 97.15 32 115.3 32 134 C21.44 134 10.88 134 0 134 C0 89.78 0 45.56 0 0 Z " fill="#F6F9FA" transform="translate(329,516)"/>
<path d="M0 0 C5.10376084 -0.37338987 10.19947998 -0.64394642 15.3137207 -0.82397461 C17.04820157 -0.89902193 18.78174499 -1.00112449 20.51293945 -1.1315918 C34.488371 -2.15771764 34.488371 -2.15771764 38.62475586 1.39581299 C41.5050361 4.98381131 43.39845703 8.99832258 45.20254517 13.20773315 C46.19008115 15.42720432 47.42899839 17.37181997 48.8203125 19.359375 C49.40039062 20.21861572 49.40039062 20.21861572 49.9921875 21.09521484 C50.36601563 21.64129395 50.73984375 22.18737305 51.125 22.75 C54.74875326 28.10211371 58.24399551 33.51305038 61.625 39.0234375 C62.85389191 41.12646767 62.85389191 41.12646767 65 42 C65.35771484 40.97132813 65.35771484 40.97132813 65.72265625 39.921875 C67.25437205 36.41813365 69.28124791 33.38754047 71.4375 30.25 C72.33448469 28.92656087 73.23027036 27.60230848 74.125 26.27734375 C74.82689453 25.23876221 74.82689453 25.23876221 75.54296875 24.17919922 C78.53436817 19.70513232 81.42898025 15.16759754 84.33178711 10.63574219 C84.7675708 9.95801758 85.20335449 9.28029297 85.65234375 8.58203125 C86.03382568 7.98624268 86.41530762 7.3904541 86.80834961 6.77661133 C87.20159424 6.19032959 87.59483887 5.60404785 88 5 C88.37946777 4.27417725 88.75893555 3.54835449 89.14990234 2.80053711 C91.54634781 0.4682878 93.42058315 0.54540983 96.67619324 0.54681396 C97.80134087 0.57778168 97.80134087 0.57778168 98.94921875 0.609375 C99.72183548 0.61503479 100.49445221 0.62069458 101.29048157 0.62652588 C103.75678629 0.64890673 106.22163492 0.69910297 108.6875 0.75 C110.36000505 0.77006294 112.03253289 0.78831408 113.70507812 0.8046875 C117.80394596 0.84877669 121.90172617 0.91781325 126 1 C125.67 1.99 125.34 2.98 125 4 C124.34 4 123.68 4 123 4 C122.73461426 4.72856201 122.46922852 5.45712402 122.19580078 6.20776367 C120.9994451 9.00129571 119.62538383 11.20349219 117.8671875 13.67578125 C117.23345215 14.57474121 116.5997168 15.47370117 115.94677734 16.39990234 C115.26309082 17.36105957 114.5794043 18.3222168 113.875 19.3125 C105.96988487 30.54285424 98.31762722 41.9266278 90.73730469 53.37792969 C88.16672614 57.2576393 85.58407839 61.1292734 83 65 C84.48034866 68.1426926 86.23781295 70.94857763 88.1953125 73.81640625 C88.82469727 74.7398584 89.45408203 75.66331055 90.10253906 76.61474609 C90.76995117 77.58750488 91.43736328 78.56026367 92.125 79.5625 C92.80788086 80.56104004 93.49076172 81.55958008 94.19433594 82.58837891 C98.06423841 88.23083327 101.98772827 93.81456746 106.0546875 99.31640625 C109.04330049 103.43925189 111.90064218 107.65089995 114.76977539 111.85742188 C117.11649736 115.28961031 119.48794709 118.69816334 121.92578125 122.06640625 C122.39000488 122.70795654 122.85422852 123.34950684 123.33251953 124.01049805 C124.21865084 125.22984667 125.10879653 126.4462906 126.00341797 127.65942383 C129 131.78232426 129 131.78232426 129 134 C124.03846636 134.32371986 119.08316886 134.5581953 114.11352539 134.71411133 C112.42786593 134.77912432 110.74292965 134.86758574 109.05981445 134.98071289 C95.16277987 135.8907113 95.16277987 135.8907113 90.1237793 131.4855957 C88.14868564 128.64295148 86.49471011 125.88109661 84.94412231 122.80105591 C83.44590174 119.94297389 81.59444183 117.3432422 79.76171875 114.69140625 C78.40243867 112.64924048 77.04435815 110.60627575 75.6875 108.5625 C74.99849609 107.52673828 74.30949219 106.49097656 73.59960938 105.42382812 C72.59704102 103.9165918 72.59704102 103.9165918 71.57421875 102.37890625 C70.94821777 101.44062988 70.3222168 100.50235352 69.67724609 99.53564453 C68.67117464 98.01467537 67.67563039 96.48654694 66.70166016 94.94482422 C65.84830673 93.5987725 64.93304984 92.29208564 64 91 C63.34 91 62.68 91 62 91 C60.44914646 92.95278086 60.44914646 92.95278086 58.875 95.50390625 C58.25520264 96.46570801 57.63540527 97.42750977 56.99682617 98.41845703 C56.00839722 99.9747583 56.00839722 99.9747583 55 101.5625 C53.64268514 103.67626821 52.28461053 105.78954876 50.92578125 107.90234375 C50.25885254 108.94245605 49.59192383 109.98256836 48.90478516 111.05419922 C45.99856618 115.54874398 43.00528562 119.98403177 39.97070312 124.39282227 C37.80052033 127.59631233 36.46664534 130.33338664 35 134 C22.79 134 10.58 134 -2 134 C2.49315699 126.13697527 2.49315699 126.13697527 4.77734375 123.046875 C5.28378418 122.35561523 5.79022461 121.66435547 6.31201172 120.95214844 C6.84842285 120.22543945 7.38483398 119.49873047 7.9375 118.75 C12.51361144 112.48032625 17.00311915 106.16384932 21.375 99.75 C21.89739258 98.98486084 22.41978516 98.21972168 22.95800781 97.43139648 C26.01905145 92.93739601 29.05556738 88.42750999 32.08203125 83.91015625 C32.76539551 82.8953418 33.44875977 81.88052734 34.15283203 80.83496094 C35.49171994 78.84606817 36.82489606 76.85331637 38.15185547 74.85644531 C39.05701904 73.51404785 39.05701904 73.51404785 39.98046875 72.14453125 C40.78327271 70.94340698 40.78327271 70.94340698 41.60229492 69.71801758 C42.0635376 69.15107178 42.52478027 68.58412598 43 68 C43.66 68 44.32 68 45 68 C41.83799759 62.05158502 38.39658887 56.50838814 34.4375 51.0625 C30.2184964 45.17562459 26.11329909 39.23302718 22.125 33.1875 C17.07569982 25.53717305 11.8531129 18.01948652 6.54345703 10.54760742 C5.97997559 9.7507251 5.41649414 8.95384277 4.8359375 8.1328125 C4.33626465 7.43043457 3.8365918 6.72805664 3.32177734 6.00439453 C2.03986714 4.06045608 0.99369099 2.10355831 0 0 Z " fill="#F8FAFB" transform="translate(465,516)"/>
<path d="M0 0 C1.16015625 0.48146484 1.16015625 0.48146484 2.34375 0.97265625 C8.92542023 3.78031319 16.72245926 9.06484085 20.3203125 15.28125 C20.54460937 15.8484375 20.76890625 16.415625 21 17 C20.11957031 17.86882813 19.23914063 18.73765625 18.33203125 19.6328125 C17.15871875 20.7967385 15.98554927 21.9608087 14.8125 23.125 C14.23435547 23.69476562 13.65621094 24.26453125 13.06054688 24.8515625 C9.47951655 28.41236101 6.17179647 32.06960061 3 36 C0.06120516 34.64763423 -2.29232911 33.10057341 -4.75 31 C-5.36359375 30.484375 -5.9771875 29.96875 -6.609375 29.4375 C-8 28 -8 28 -8 26 C-9.41601714 25.51891725 -10.83284437 25.04021859 -12.25 24.5625 C-13.03890625 24.29566406 -13.8278125 24.02882813 -14.640625 23.75390625 C-18.19630321 22.61773755 -21.33642947 21.8733228 -25.08203125 21.8671875 C-25.84966797 21.86589844 -26.61730469 21.86460937 -27.40820312 21.86328125 C-28.20162109 21.86714844 -28.99503906 21.87101563 -29.8125 21.875 C-30.59431641 21.87113281 -31.37613281 21.86726562 -32.18164062 21.86328125 C-36.89136737 21.87115047 -41.35506176 22.21860852 -46 23 C-46 23.66 -46 24.32 -46 25 C-47.08474609 25.36931641 -47.08474609 25.36931641 -48.19140625 25.74609375 C-57.21435359 29.77441934 -64.39406505 38.74038307 -68.13671875 47.73046875 C-70.81898657 57.88910299 -70.11145726 71.38383419 -66 81 C-59.73728048 91.61759071 -52.03214502 98.72218471 -40 102 C-26.61336811 103.8056543 -14.98514361 100.80472015 -4 93 C-2.22801818 91.40646132 -0.63490821 89.73708997 1 88 C1.66 88 2.32 88 3 88 C4.15897041 89.39758196 5.31356026 90.79903713 6.4453125 92.21875 C8.75160239 94.86113238 11.39759668 97.04908808 14.0625 99.3203125 C16.50345667 101.43646445 18.75195545 103.68170406 21 106 C16.61381226 116.19675605 4.06629685 122.49983293 -5.66796875 126.51171875 C-14.27678183 129.67765739 -21.81364444 131.17992834 -30.9375 131.1875 C-31.71029297 131.19974609 -32.48308594 131.21199219 -33.27929688 131.22460938 C-38.21045681 131.23711443 -42.26487071 130.52487215 -47 129 C-48.55888999 128.70910665 -50.1213292 128.4362287 -51.6875 128.1875 C-62.50823955 126.03648804 -70.8790262 121.36393387 -79 114 C-80.04800781 113.07380859 -80.04800781 113.07380859 -81.1171875 112.12890625 C-93.39937904 100.63526008 -100.43970916 85.7742021 -101.5078125 69.00390625 C-102.14047192 49.67417422 -98.9891932 32.41535379 -85.625 17.75 C-83.77874804 15.80122995 -81.89745449 13.90018071 -80 12 C-79.3296875 11.31808594 -78.659375 10.63617187 -77.96875 9.93359375 C-58.06876444 -8.91236715 -24.00446999 -12.40437173 0 0 Z " fill="#F8FAFB" transform="translate(292,521)"/>
<path d="M0 0 C3.89954515 0.64278217 7.24656822 1.81995781 10.875 3.375 C11.86242187 3.79523438 12.84984375 4.21546875 13.8671875 4.6484375 C15.41792969 5.31746094 15.41792969 5.31746094 17 6 C22.08613365 8.19158604 27.19034117 10.33201948 32.3125 12.4375 C33.06015625 12.74534424 33.8078125 13.05318848 34.578125 13.37036133 C38.54284535 15.00013968 42.51388687 16.61057613 46.5 18.1875 C48.00108629 18.78896266 49.50112031 19.39305928 51 20 C51.8353125 20.33773438 52.670625 20.67546875 53.53125 21.0234375 C54.3459375 21.36632812 55.160625 21.70921875 56 22.0625 C56.721875 22.36285156 57.44375 22.66320312 58.1875 22.97265625 C60 24 60 24 62 27 C61.96856707 29.73990408 61.44521663 32.28417854 61 35 C60.01 35.33 59.02 35.66 58 36 C57.30456801 37.65487056 56.64702296 39.32560951 56 41 C54.26730447 44.02161501 52.38068368 46.94378619 50.5 49.875 C49.70130493 51.12180542 49.70130493 51.12180542 48.88647461 52.39379883 C47.79194452 54.09888091 46.69550432 55.80273834 45.59716797 57.50537109 C44.09543742 59.85093556 42.62433625 62.21291026 41.16015625 64.58203125 C40.29506325 65.9510219 39.42922066 67.31953926 38.5625 68.6875 C38.17449219 69.32864746 37.78648437 69.96979492 37.38671875 70.63037109 C36.25390625 72.38671875 36.25390625 72.38671875 34 75 C31.3515625 75.53515625 31.3515625 75.53515625 29 75 C26.8125 72.75 26.8125 72.75 25 70 C24.566875 69.38125 24.13375 68.7625 23.6875 68.125 C22.61209681 64.80102652 22.86168094 62.22719321 24 59 C26.1420682 55.19757272 28.51597066 51.5866011 31 48 C27.19896858 48.52410473 23.41664145 49.09433904 19.63671875 49.75390625 C9.54844382 51.44298638 -0.3278903 52.29406192 -10.5625 52.3125 C-12.14768433 52.32035522 -12.14768433 52.32035522 -13.76489258 52.32836914 C-23.97657688 52.23790106 -33.72710713 50.72106687 -43.4375 47.5625 C-44.43813477 47.25602539 -44.43813477 47.25602539 -45.45898438 46.94335938 C-49.32334085 45.71639753 -52.59681809 44.18950234 -56 42 C-57.66072849 41.31867549 -59.327767 40.65257873 -61 40 C-70.55366858 35.55052918 -80.51756252 28.42716872 -87 20 C-87 19.01 -87 18.02 -87 17 C-84.75900431 15.77164675 -82.5098622 14.56770505 -80.25 13.375 C-79.61578125 13.024375 -78.9815625 12.67375 -78.328125 12.3125 C-73.59588317 9.84779071 -73.59588317 9.84779071 -70.84375 10.55078125 C-70.2353125 11.02902344 -69.626875 11.50726563 -69 12 C-68.24203125 12.58394531 -67.4840625 13.16789062 -66.703125 13.76953125 C-65.89359375 14.44371094 -65.0840625 15.11789062 -64.25 15.8125 C-42.45629649 33.34221804 -15.6196827 35.49836271 11.53515625 32.58203125 C14.71582174 32.13720632 17.85170198 31.63058016 21 31 C21.94359375 30.81308594 22.8871875 30.62617188 23.859375 30.43359375 C24.56578125 30.29050781 25.2721875 30.14742188 26 30 C26 29.34 26 28.68 26 28 C24.72125 27.773125 23.4425 27.54625 22.125 27.3125 C16.672294 26.07678374 11.60153973 24.22899633 7 21 C5.47857087 18.01565824 5 16.28508968 5 13 C4.34 13 3.68 13 3 13 C2.49242138 11.58603098 1.99425075 10.16868271 1.5 8.75 C1.2215625 7.96109375 0.943125 7.1721875 0.65625 6.359375 C0 4 0 4 0 0 Z " fill="#F6F9FA" transform="translate(415,359)"/>
<path d="M0 0 C1.98 1.32 3.96 2.64 6 4 C7.05960937 4.33257812 8.11921875 4.66515625 9.2109375 5.0078125 C13.01340647 6.35041266 15.8507702 7.53428608 18 11 C18.70903946 15.44968356 18.52807472 19.81343204 18.3515625 24.3046875 C18.32618408 25.522771 18.30080566 26.74085449 18.2746582 27.99584961 C18.20844877 30.99881519 18.11601305 33.99861343 18 37 C19.02650665 36.98223511 20.05301331 36.96447021 21.11062622 36.94616699 C30.79172403 36.78388592 40.47254544 36.66401992 50.15469551 36.58550262 C55.13235345 36.54377762 60.10891222 36.48720049 65.0859375 36.39648438 C69.8906112 36.30945933 74.69422891 36.26170563 79.49962997 36.24098206 C81.33137513 36.22621746 83.16306343 36.19738344 84.99435806 36.15415955 C99.41289608 35.82742344 99.41289608 35.82742344 103.38470459 38.76185608 C104.88286977 40.78383014 105.89387605 42.75217939 107 45 C109.90275368 47.11669535 109.90275368 47.11669535 113 48.4375 C113.99 48.91058594 114.98 49.38367188 116 49.87109375 C119.01617046 51.00608498 121.81096311 51.58713362 125 52 C124.67 52.66 124.34 53.32 124 54 C75.82 54 27.64 54 -22 54 C-22 48.39 -22 42.78 -22 37 C-14.74 37 -7.48 37 0 37 C0 24.79 0 12.58 0 0 Z " fill="#F9FAFB" transform="translate(325,399)"/>
<path d="M0 0 C11.22 0 22.44 0 34 0 C34 0.66 34 1.32 34 2 C148.84 2 263.68 2 382 2 C382 2.66 382 3.32 382 4 C384.64 4 387.28 4 390 4 C390 4.66 390 5.32 390 6 C392.64 6 395.28 6 398 6 C398 6.66 398 7.32 398 8 C399.98 8 401.96 8 404 8 C404 8.66 404 9.32 404 10 C405.98 10 407.96 10 410 10 C410 10.66 410 11.32 410 12 C411.32 12 412.64 12 414 12 C414 12.66 414 13.32 414 14 C415.32 14 416.64 14 418 14 C418 14.66 418 15.32 418 16 C419.32 16 420.64 16 422 16 C422 16.66 422 17.32 422 18 C423.32 18 424.64 18 426 18 C426 18.66 426 19.32 426 20 C426.66 20 427.32 20 428 20 C428 20.66 428 21.32 428 22 C429.32 22 430.64 22 432 22 C432 22.66 432 23.32 432 24 C432.66 24 433.32 24 434 24 C434 24.66 434 25.32 434 26 C434.66 26 435.32 26 436 26 C436 26.66 436 27.32 436 28 C436.66 28 437.32 28 438 28 C438 28.66 438 29.32 438 30 C438.66 30 439.32 30 440 30 C440 30.66 440 31.32 440 32 C440.66 32 441.32 32 442 32 C442 32.66 442 33.32 442 34 C442.66 34 443.32 34 444 34 C444 34.66 444 35.32 444 36 C444.66 36 445.32 36 446 36 C446 36.66 446 37.32 446 38 C446.66 38 447.32 38 448 38 C448 38.66 448 39.32 448 40 C448.66 40 449.32 40 450 40 C450 40.66 450 41.32 450 42 C450.66 42 451.32 42 452 42 C452 42.66 452 43.32 452 44 C452.66 44 453.32 44 454 44 C454 44.66 454 45.32 454 46 C454.66 46 455.32 46 456 46 C456 46.66 456 47.32 456 48 C456.66 48 457.32 48 458 48 C458 49.32 458 50.64 458 52 C458.66 52 459.32 52 460 52 C460 52.66 460 53.32 460 54 C460.66 54 461.32 54 462 54 C462 55.32 462 56.64 462 58 C462.66 58 463.32 58 464 58 C464 59.32 464 60.64 464 62 C464.66 62 465.32 62 466 62 C466 63.32 466 64.64 466 66 C466.66 66 467.32 66 468 66 C468 67.32 468 68.64 468 70 C468.66 70 469.32 70 470 70 C470 71.32 470 72.64 470 74 C470.66 74 471.32 74 472 74 C472 76.64 472 79.28 472 82 C472.66 82 473.32 82 474 82 C474 83.98 474 85.96 474 88 C474.66 88 475.32 88 476 88 C476 91.3 476 94.6 476 98 C476.66 98 477.32 98 478 98 C478 286.1 478 474.2 478 668 C477.34 668 476.68 668 476 668 C476 670.64 476 673.28 476 676 C475.34 676 474.68 676 474 676 C474 678.64 474 681.28 474 684 C473.34 684 472.68 684 472 684 C472.11838259 682.12457057 472.24524907 680.24967722 472.375 678.375 C472.44460938 677.33085938 472.51421875 676.28671875 472.5859375 675.2109375 C472.774975 672.87934614 473.0657876 670.62395632 473.46924382 668.31778961 C475.39124061 657.04598619 475.27618784 645.88837808 475.24723816 634.48582458 C475.24882832 632.21024106 475.25129396 629.93465801 475.25455457 627.65907627 C475.26094335 621.43351478 475.25491907 615.20801873 475.24679029 608.98246157 C475.24087217 602.94931393 475.24438938 596.91617625 475.2476195 590.88302839 C475.25388097 578.54673652 475.25073854 566.21046381 475.24202538 553.87417412 C475.2333991 541.65799214 475.2285055 529.44181878 475.22869301 517.22563362 C475.22870065 516.46460552 475.2287083 515.70357742 475.22871618 514.91948787 C475.22875709 511.82998443 475.2288227 508.740481 475.22892199 505.65097757 C475.22982735 476.68950562 475.21989411 447.72804677 475.20449232 418.76657936 C475.19086786 393.05247353 475.18463114 367.33837699 475.18530273 341.62426758 C475.18534315 339.97294819 475.18538351 338.3216288 475.18542381 336.67030942 C475.18544416 335.85391668 475.18546452 335.03752394 475.18548548 334.19639202 C475.18558628 330.08651953 475.18567686 325.97664705 475.18575573 321.86677456 C475.1857808 320.65047196 475.1857808 320.65047196 475.18580638 319.40959758 C475.18617179 297.90337236 475.18163029 276.39714829 475.17542917 254.89092404 C475.17509876 253.74295756 475.17509876 253.74295756 475.17476168 252.57179985 C475.17387348 249.49452645 475.17298507 246.41725306 475.17207072 243.33997967 C475.16891494 232.64775569 475.167402 221.95553263 475.16695923 211.26330821 C475.16636137 197.48312789 475.16235186 183.70295523 475.15252777 169.92277818 C475.14787351 163.28021971 475.14486187 156.63766845 475.14612198 149.99510765 C475.1472201 143.91140391 475.1436798 137.82772095 475.13647345 131.74402154 C475.13466609 129.54637743 475.13452399 127.34873116 475.13624074 125.15108698 C475.38850668 103.33973221 475.38850668 103.33973221 470.9375 82.125 C470.62876953 81.18245361 470.32003906 80.23990723 470.00195312 79.26879883 C465.93332766 67.30243319 460.34527876 56.57043671 452 47 C451.31164062 46.19175781 450.62328125 45.38351563 449.9140625 44.55078125 C442.24458245 35.76451726 433.99238139 28.05193337 424 22 C422.3603125 20.95005859 422.3603125 20.95005859 420.6875 19.87890625 C412.9020861 15.06493045 405.07119855 11.73300931 396.3125 9.0625 C395.38743652 8.78027588 394.46237305 8.49805176 393.50927734 8.20727539 C378.74688599 3.96064916 364.56704641 3.71649435 349.32878113 3.75949097 C347.02417192 3.75861797 344.71956292 3.75686526 342.41495496 3.75431263 C336.10502587 3.74985364 329.79516503 3.75782289 323.48524463 3.76786876 C317.37258498 3.77662025 311.25992455 3.77394618 305.14726055 3.77250507 C292.65035662 3.76988302 280.15347391 3.77653818 267.65657616 3.78853989 C255.28884971 3.800387 242.92113212 3.80807442 230.55340004 3.81024551 C229.39852725 3.81045173 229.39852725 3.81045173 228.22032369 3.81066212 C224.31007519 3.81133881 220.39982668 3.81194157 216.48957817 3.81251587 C188.81653243 3.81671309 161.14349823 3.83017774 133.47045898 3.84912109 C106.59187888 3.86749933 79.71330193 3.88166197 52.8347168 3.89013672 C52.00573155 3.89039977 51.1767463 3.89066282 50.32264029 3.89093385 C41.99738501 3.89357096 33.67212971 3.89612258 25.34687439 3.89861157 C8.38842004 3.90368355 -8.57003411 3.90932606 -25.52848816 3.91531372 C-26.30815523 3.9155883 -27.0878223 3.91586288 -27.89111565 3.91614578 C-79.92741529 3.93453709 -131.96370831 3.966268 -184 4 C-184 3.34 -184 2.68 -184 2 C-123.28 2 -62.56 2 0 2 C0 1.34 0 0.68 0 0 Z " fill="#A6BBCF" transform="translate(284,0)"/>
<path d="M0 0 C3.3789194 0.76503836 5.56760347 1.65096147 8.3125 3.75 C9.74554064 6.61608129 9.61894155 8.56300783 9.3125 11.75 C8.03931446 13.78881739 6.69492824 15.78361501 5.3125 17.75 C-2.64787688 29.43213398 -7.08122798 38.3421237 -7.6875 52.75 C-7.75195312 53.7709375 -7.81640625 54.791875 -7.8828125 55.84375 C-8.45485607 71.25079015 -3.72890717 85.26257321 5.625 97.4375 C8.09018014 100.75403267 9.26496203 102.5394747 10.1875 106.625 C9.2319614 110.03763785 8.012619 111.80425948 5.0859375 113.8515625 C1.77252591 115.53016309 -0.07003512 115.57503585 -3.6875 114.75 C-16.91124724 104.08853786 -24.28312404 84.09686836 -26.6875 67.75 C-28.83076135 44.6299319 -22.36128047 22.63645207 -7.6875 4.5 C-4.91473161 1.53952002 -4.09538182 0.83295901 0 0 Z " fill="#F4F7F9" transform="translate(207.6875,182.25)"/>
<path d="M0 0 C6.17314583 1.43021398 8.84932914 6.57403013 12.03515625 11.58203125 C20.36434317 25.46662684 24.51164994 38.10281481 24.36376953 54.35449219 C24.34767614 56.45443651 24.36370481 58.55245722 24.3828125 60.65234375 C24.41406139 79.01871069 17.44558854 96.12711387 5.97265625 110.45703125 C2.93413857 113.21803726 1.55512776 114.35301848 -2.52734375 115.08203125 C-6.02734375 114.45703125 -6.02734375 114.45703125 -8.96484375 111.89453125 C-10.58757593 109.55845036 -11.12925327 108.04939318 -11.83984375 105.20703125 C-10.78442038 100.33584645 -8.39054852 97.86314338 -5.1953125 94.125 C3.75883248 83.10575492 6.5662147 70.70752785 6.53515625 56.76953125 C6.53273926 55.63265869 6.53032227 54.49578613 6.52783203 53.32446289 C6.21399925 38.88302715 1.41242783 27.86902575 -7.515625 16.57421875 C-9.62647634 13.82713898 -10.96753921 11.75605393 -11.65234375 8.33203125 C-10.30463028 2.13254929 -6.30558092 -0.5068037 0 0 Z " fill="#F5F7FA" transform="translate(329.02734375,182.54296875)"/>
<path d="M0 0 C14.85 0 29.7 0 45 0 C51.85277851 28.78166974 51.85277851 28.78166974 47 38 C43.84763275 42.55341936 40.38295655 46.3225646 35 48 C27.86514391 48.80177044 21.16520838 48.90043795 15 45 C8.13278551 38.6873824 5.7775799 31.06146404 3.9375 22.1875 C3.76831055 21.39722412 3.59912109 20.60694824 3.42480469 19.79272461 C2.94265681 17.5299275 2.47032021 15.26527979 2 13 C1.76925781 11.91460937 1.53851563 10.82921875 1.30078125 9.7109375 C0.60844999 6.38185525 0 3.408518 0 0 Z " fill="#205A95" transform="translate(437,226)"/>
<path d="M0 0 C14.52 0 29.04 0 44 0 C47.36379613 7.84885764 47.36379613 7.84885764 48.125 12.25 C48.60590885 14.96671314 49.12409179 17.37227538 50 20 C50.67000408 27.41397958 50.64476115 33.91563452 46 40 C41.71043013 44.55385616 37.45107902 47.68793434 31.0625 48.265625 C30.051875 48.26046875 29.04125 48.2553125 28 48.25 C26.4840625 48.25773437 26.4840625 48.25773437 24.9375 48.265625 C19.08245288 47.73617925 15.58556822 45.32705782 11.63671875 41.1640625 C6.49414736 34.3645767 5.35010211 25.40058204 3.7265625 17.23828125 C3.1126473 14.50206782 2.37051359 12.0857061 1.3125 9.5 C0 6 0 6 0 0 Z " fill="#215A96" transform="translate(499,226)"/>
<path d="M0 0 C14.52 0 29.04 0 44 0 C51.13113387 29.95076227 51.13113387 29.95076227 45.6328125 39.83203125 C42.3573381 44.18104631 38.07137011 46.3095433 33 48 C25.07916116 48.92256026 18.39921282 47.98712733 12 43 C7.6782633 37.94455231 5.49742527 32.56521503 4.5 26.05078125 C3.68741782 21.09276027 2.47208841 16.22079329 1.31982422 11.33203125 C1.1498291 10.58695313 0.97983398 9.841875 0.8046875 9.07421875 C0.64983887 8.40994873 0.49499023 7.74567871 0.33544922 7.0612793 C0 5 0 5 0 0 Z " fill="#205995" transform="translate(562,226)"/>
<path d="M0 0 C9.08429048 7.09017793 13.44776193 17.900811 15 29 C15.50743893 37.32395014 15.17028273 44.28850148 12 52 C11.42666474 53.68384951 10.86395881 55.37135965 10.3125 57.0625 C9.875 58.375 9.4375 59.6875 9 61 C8.34 61 7.68 61 7 61 C6.7525 61.721875 6.505 62.44375 6.25 63.1875 C4.61601177 66.86397353 2.67796581 70.16101709 -1 72 C-3.8125 72.375 -3.8125 72.375 -7 72 C-9.8125 69.5625 -9.8125 69.5625 -12 67 C-12.33 66.67 -12.66 66.34 -13 66 C-13.48746104 62.58777273 -13.67516482 60.05334258 -11.765625 57.07421875 C-11.24484375 56.43097656 -10.7240625 55.78773438 -10.1875 55.125 C-3.3708306 46.66459471 -3.13501902 37.6200442 -4 27 C-4.95662488 22.50386308 -7.59207502 19.14963266 -10.1875 15.4375 C-12.08877491 12.64485431 -12.97739201 11.11756153 -13.625 7.75 C-12.84057813 4.29854378 -11.44932013 2.52135896 -9 0 C-5.77509551 -1.61245225 -3.43772273 -0.81573082 0 0 Z " fill="#F3F6F9" transform="translate(305,204)"/>
<path d="M0 0 C3.43409996 0.57457704 4.87408456 1.60209857 7.0078125 4.3359375 C7.4115439 7.38227441 7.30135074 10.28313982 7.0078125 13.3359375 C6.3478125 13.3359375 5.6878125 13.3359375 5.0078125 13.3359375 C4.7603125 13.8515625 4.5128125 14.3671875 4.2578125 14.8984375 C2.91342031 17.52000227 1.42973729 20.03160954 -0.08984375 22.5546875 C-3.50548312 29.29724833 -3.06463161 39.12395494 -1.23828125 46.296875 C0.25809613 50.11117029 2.10785101 53.54510695 4.2578125 57.0234375 C6.26784183 60.82813587 6.49747161 63.09222518 6.0078125 67.3359375 C4.0078125 70.3359375 4.0078125 70.3359375 1.87109375 71.12890625 C-4.85233506 72.16882403 -4.85233506 72.16882403 -8.06640625 69.8203125 C-9.88901451 67.74862763 -11.45287081 65.62433343 -12.9921875 63.3359375 C-13.7346875 62.4078125 -14.4771875 61.4796875 -15.2421875 60.5234375 C-19.67024277 52.45805111 -20.49659319 43.83003488 -20.4296875 34.7734375 C-20.44966797 33.80986328 -20.46964844 32.84628906 -20.49023438 31.85351562 C-20.48406802 22.70880906 -17.85139352 15.28505712 -12.4296875 7.8984375 C-11.85089844 7.09535156 -11.27210938 6.29226562 -10.67578125 5.46484375 C-7.2946952 1.18945652 -5.82041578 -0.27920814 0 0 Z " fill="#F7F9FB" transform="translate(235.9921875,203.6640625)"/>
<path d="M0 0 C1.98 0 3.96 0 6 0 C3.06452949 2.37306728 0.19767887 3.8630291 -3.25 5.375 C-24.47105241 15.7907185 -42.33829401 36.30895024 -52.1875 57.5625 C-53.08820106 60.14661279 -53.08820106 60.14661279 -53.82755953 63.46398121 C-54.64048427 66.76482646 -55.62203908 69.97032082 -56.69649547 73.19526285 C-61.43475958 87.67966098 -62.99908127 100.60624646 -62.85523987 115.77919006 C-62.85973834 118.07023535 -62.86730951 120.36127627 -62.87764019 122.65230268 C-62.89696316 128.87449269 -62.87325113 135.09585039 -62.84177744 141.31796253 C-62.81816728 147.36178894 -62.8278814 153.40551121 -62.83648139 159.44935546 C-62.85288453 171.79713173 -62.83676597 184.14466006 -62.80124092 196.49238777 C-62.76613717 208.71148581 -62.74489101 220.93047589 -62.74201775 233.14962578 C-62.74182682 233.91244893 -62.74163589 234.67527207 -62.74143918 235.46121107 C-62.74070962 238.55831274 -62.7400825 241.6554144 -62.73958895 244.75251611 C-62.73508462 272.91963668 -62.69715068 301.0866074 -62.63793945 329.25366211 C-62.58213746 355.80900893 -62.54673028 382.36427378 -62.53540039 408.91967773 C-62.53504583 409.73848808 -62.53469128 410.55729842 -62.53432598 411.40092119 C-62.53254302 415.52541532 -62.53078974 419.64990946 -62.52904099 423.7744036 C-62.52869479 424.58840208 -62.5283486 425.40240055 -62.52799191 426.24106565 C-62.52729636 427.88257279 -62.52660744 429.52407993 -62.52592515 431.16558707 C-62.51492649 457.33001705 -62.48769724 483.49443184 -62.45691963 509.65884518 C-62.44796991 517.3067829 -62.43975931 524.95472014 -62.43330884 532.60266042 C-62.41960208 548.67436289 -62.40078388 564.74602304 -62.36359514 580.81769062 C-62.34835681 587.46056663 -62.33625111 594.10341739 -62.33261871 600.7463131 C-62.3291484 606.83222275 -62.31638396 612.91804097 -62.29630875 619.00391787 C-62.29062489 621.19994732 -62.28822204 623.39598838 -62.28951783 625.59202481 C-62.29568324 640.5778953 -61.94064064 655.2195869 -57.5625 669.6875 C-57.18822876 670.92753784 -57.18822876 670.92753784 -56.80639648 672.19262695 C-48.14584586 698.95678266 -28.34351469 722.30495955 -4 736 C-3.03191406 736.5465625 -2.06382813 737.093125 -1.06640625 737.65625 C6.95147024 741.92084645 15.30864569 744.50730194 24 747 C24 747.33 24 747.66 24 748 C21.36 748 18.72 748 16 748 C16 747.34 16 746.68 16 746 C14.02 746 12.04 746 10 746 C10 745.34 10 744.68 10 744 C8.02 744 6.04 744 4 744 C4 743.34 4 742.68 4 742 C2.68 742 1.36 742 0 742 C0 741.34 0 740.68 0 740 C-1.32 740 -2.64 740 -4 740 C-4 739.34 -4 738.68 -4 738 C-5.32 738 -6.64 738 -8 738 C-8 737.34 -8 736.68 -8 736 C-9.32 736 -10.64 736 -12 736 C-12 735.34 -12 734.68 -12 734 C-12.66 734 -13.32 734 -14 734 C-14 733.34 -14 732.68 -14 732 C-15.32 732 -16.64 732 -18 732 C-18 731.34 -18 730.68 -18 730 C-18.66 730 -19.32 730 -20 730 C-20 729.34 -20 728.68 -20 728 C-20.66 728 -21.32 728 -22 728 C-22 727.34 -22 726.68 -22 726 C-23.32 726 -24.64 726 -26 726 C-26 725.34 -26 724.68 -26 724 C-26.66 724 -27.32 724 -28 724 C-28 723.34 -28 722.68 -28 722 C-28.66 722 -29.32 722 -30 722 C-30 721.34 -30 720.68 -30 720 C-30.66 720 -31.32 720 -32 720 C-32 719.34 -32 718.68 -32 718 C-32.66 718 -33.32 718 -34 718 C-34 717.34 -34 716.68 -34 716 C-34.66 716 -35.32 716 -36 716 C-36 715.34 -36 714.68 -36 714 C-36.66 714 -37.32 714 -38 714 C-38 713.34 -38 712.68 -38 712 C-38.66 712 -39.32 712 -40 712 C-40 710.68 -40 709.36 -40 708 C-40.66 708 -41.32 708 -42 708 C-42 707.34 -42 706.68 -42 706 C-42.66 706 -43.32 706 -44 706 C-44 704.68 -44 703.36 -44 702 C-44.66 702 -45.32 702 -46 702 C-46 701.34 -46 700.68 -46 700 C-46.66 700 -47.32 700 -48 700 C-48 698.68 -48 697.36 -48 696 C-48.66 696 -49.32 696 -50 696 C-50 694.68 -50 693.36 -50 692 C-50.66 692 -51.32 692 -52 692 C-52 690.68 -52 689.36 -52 688 C-52.66 688 -53.32 688 -54 688 C-54 686.68 -54 685.36 -54 684 C-54.66 684 -55.32 684 -56 684 C-56 682.02 -56 680.04 -56 678 C-56.66 678 -57.32 678 -58 678 C-58 676.02 -58 674.04 -58 672 C-58.66 672 -59.32 672 -60 672 C-60 669.36 -60 666.72 -60 664 C-60.66 664 -61.32 664 -62 664 C-62 660.7 -62 657.4 -62 654 C-62.66 654 -63.32 654 -64 654 C-64 466.56 -64 279.12 -64 86 C-63.34 86 -62.68 86 -62 86 C-62 83.36 -62 80.72 -62 78 C-61.34 78 -60.68 78 -60 78 C-60 75.36 -60 72.72 -60 70 C-59.34 70 -58.68 70 -58 70 C-58 68.02 -58 66.04 -58 64 C-57.34 64 -56.68 64 -56 64 C-56 62.02 -56 60.04 -56 58 C-55.34 58 -54.68 58 -54 58 C-54 56.68 -54 55.36 -54 54 C-53.34 54 -52.68 54 -52 54 C-52 52.68 -52 51.36 -52 50 C-51.34 50 -50.68 50 -50 50 C-50 48.68 -50 47.36 -50 46 C-49.34 46 -48.68 46 -48 46 C-48 44.68 -48 43.36 -48 42 C-47.34 42 -46.68 42 -46 42 C-46 41.34 -46 40.68 -46 40 C-45.34 40 -44.68 40 -44 40 C-44 38.68 -44 37.36 -44 36 C-43.34 36 -42.68 36 -42 36 C-42 35.34 -42 34.68 -42 34 C-41.34 34 -40.68 34 -40 34 C-40 33.34 -40 32.68 -40 32 C-39.34 32 -38.68 32 -38 32 C-38 31.34 -38 30.68 -38 30 C-37.34 30 -36.68 30 -36 30 C-36 29.34 -36 28.68 -36 28 C-35.34 28 -34.68 28 -34 28 C-34 27.34 -34 26.68 -34 26 C-33.34 26 -32.68 26 -32 26 C-32 25.34 -32 24.68 -32 24 C-31.34 24 -30.68 24 -30 24 C-30 23.34 -30 22.68 -30 22 C-29.34 22 -28.68 22 -28 22 C-28 21.34 -28 20.68 -28 20 C-27.34 20 -26.68 20 -26 20 C-26 19.34 -26 18.68 -26 18 C-25.34 18 -24.68 18 -24 18 C-24 17.34 -24 16.68 -24 16 C-23.34 16 -22.68 16 -22 16 C-22 15.34 -22 14.68 -22 14 C-21.34 14 -20.68 14 -20 14 C-20 13.34 -20 12.68 -20 12 C-19.34 12 -18.68 12 -18 12 C-18 11.34 -18 10.68 -18 10 C-16.68 10 -15.36 10 -14 10 C-14 9.34 -14 8.68 -14 8 C-13.34 8 -12.68 8 -12 8 C-12 7.34 -12 6.68 -12 6 C-10.68 6 -9.36 6 -8 6 C-8 5.34 -8 4.68 -8 4 C-6.68 4 -5.36 4 -4 4 C-4 3.34 -4 2.68 -4 2 C-2.68 2 -1.36 2 0 2 C0 1.34 0 0.68 0 0 Z " fill="#CBD8E1" transform="translate(64,12)"/>
<path d="M0 0 C0 0.66 0 1.32 0 2 C0.8353125 2.0928125 0.8353125 2.0928125 1.6875 2.1875 C5.08794844 3.38225215 6.72809613 5.23687367 9 8 C9.8125 10.8125 9.8125 10.8125 10 14 C10.05800781 14.96486328 10.05800781 14.96486328 10.1171875 15.94921875 C10.290845 21.01422921 10.00395024 25.53632 6.671875 29.6328125 C3.41908371 33.03345794 0.5054784 35.71461888 -4.33203125 36.265625 C-10.92582878 36.22408927 -16.54077721 36.12387423 -21.75 31.625 C-22.4925 30.75875 -23.235 29.8925 -24 29 C-24.53496094 28.38511719 -25.06992188 27.77023438 -25.62109375 27.13671875 C-28.61034861 22.50464394 -27.2610751 16.42404599 -26.3125 11.25 C-24.33039252 6.34192432 -21.67078708 3.19341934 -17.375 0.125 C-11.75837174 -1.74720942 -5.63683363 -1.87894454 0 0 Z " fill="#F8FAFB" transform="translate(276,222)"/>
<path d="M0 0 C11.22 0 22.44 0 34 0 C34 0.66 34 1.32 34 2 C148.84 2 263.68 2 382 2 C382 2.66 382 3.32 382 4 C384.64 4 387.28 4 390 4 C390 4.66 390 5.32 390 6 C392.64 6 395.28 6 398 6 C398 6.66 398 7.32 398 8 C399.98 8 401.96 8 404 8 C404 8.66 404 9.32 404 10 C405.98 10 407.96 10 410 10 C410 10.66 410 11.32 410 12 C411.32 12 412.64 12 414 12 C414 12.66 414 13.32 414 14 C415.32 14 416.64 14 418 14 C418 14.66 418 15.32 418 16 C419.32 16 420.64 16 422 16 C422 16.66 422 17.32 422 18 C423.32 18 424.64 18 426 18 C426 18.66 426 19.32 426 20 C426.66 20 427.32 20 428 20 C428 20.66 428 21.32 428 22 C429.32 22 430.64 22 432 22 C432 22.66 432 23.32 432 24 C432.66 24 433.32 24 434 24 C434 24.66 434 25.32 434 26 C434.66 26 435.32 26 436 26 C436 26.66 436 27.32 436 28 C436.66 28 437.32 28 438 28 C438 28.66 438 29.32 438 30 C438.66 30 439.32 30 440 30 C440 30.66 440 31.32 440 32 C440.66 32 441.32 32 442 32 C442 32.66 442 33.32 442 34 C442.66 34 443.32 34 444 34 C444 34.66 444 35.32 444 36 C444.66 36 445.32 36 446 36 C446 36.66 446 37.32 446 38 C446.66 38 447.32 38 448 38 C448 38.66 448 39.32 448 40 C448.66 40 449.32 40 450 40 C450 40.66 450 41.32 450 42 C450.66 42 451.32 42 452 42 C452 42.66 452 43.32 452 44 C452.66 44 453.32 44 454 44 C454 44.66 454 45.32 454 46 C454.66 46 455.32 46 456 46 C456 46.66 456 47.32 456 48 C456.66 48 457.32 48 458 48 C458 49.32 458 50.64 458 52 C458.66 52 459.32 52 460 52 C460 52.66 460 53.32 460 54 C460.66 54 461.32 54 462 54 C462 55.32 462 56.64 462 58 C462.66 58 463.32 58 464 58 C464 59.32 464 60.64 464 62 C464.66 62 465.32 62 466 62 C466 63.32 466 64.64 466 66 C466.66 66 467.32 66 468 66 C468 67.32 468 68.64 468 70 C468.66 70 469.32 70 470 70 C470 71.32 470 72.64 470 74 C470.66 74 471.32 74 472 74 C472 76.64 472 79.28 472 82 C472.66 82 473.32 82 474 82 C474 83.98 474 85.96 474 88 C474.66 88 475.32 88 476 88 C476 91.3 476 94.6 476 98 C475.67 98 475.34 98 475 98 C474.76925781 97.07960938 474.53851562 96.15921875 474.30078125 95.2109375 C468.79573552 73.8435268 461.02902844 56.26644844 446 40 C445.34515625 39.26394531 444.6903125 38.52789062 444.015625 37.76953125 C438.15674398 31.49752401 431.14052147 26.68579534 424 22 C423.09531982 21.40155273 423.09531982 21.40155273 422.17236328 20.79101562 C399.92330645 6.38300987 375.16768823 3.68658334 349.32878113 3.75949097 C347.02417192 3.75861797 344.71956292 3.75686526 342.41495496 3.75431263 C336.10502587 3.74985364 329.79516503 3.75782289 323.48524463 3.76786876 C317.37258498 3.77662025 311.25992455 3.77394618 305.14726055 3.77250507 C292.65035662 3.76988302 280.15347391 3.77653818 267.65657616 3.78853989 C255.28884971 3.800387 242.92113212 3.80807442 230.55340004 3.81024551 C229.39852725 3.81045173 229.39852725 3.81045173 228.22032369 3.81066212 C224.31007519 3.81133881 220.39982668 3.81194157 216.48957817 3.81251587 C188.81653243 3.81671309 161.14349823 3.83017774 133.47045898 3.84912109 C106.59187888 3.86749933 79.71330193 3.88166197 52.8347168 3.89013672 C52.00573155 3.89039977 51.1767463 3.89066282 50.32264029 3.89093385 C41.99738501 3.89357096 33.67212971 3.89612258 25.34687439 3.89861157 C8.38842004 3.90368355 -8.57003411 3.90932606 -25.52848816 3.91531372 C-26.30815523 3.9155883 -27.0878223 3.91586288 -27.89111565 3.91614578 C-79.92741529 3.93453709 -131.96370831 3.966268 -184 4 C-184 3.34 -184 2.68 -184 2 C-123.28 2 -62.56 2 0 2 C0 1.34 0 0.68 0 0 Z " fill="#E3E8EC" transform="translate(284,0)"/>
<path d="M0 0 C0.33 0 0.66 0 1 0 C1 1.98 1 3.96 1 6 C0.34 6 -0.32 6 -1 6 C-1 7.98 -1 9.96 -1 12 C-1.66 12 -2.32 12 -3 12 C-3 13.32 -3 14.64 -3 16 C-3.66 16 -4.32 16 -5 16 C-5 17.32 -5 18.64 -5 20 C-5.66 20 -6.32 20 -7 20 C-7 21.32 -7 22.64 -7 24 C-7.66 24 -8.32 24 -9 24 C-9 25.32 -9 26.64 -9 28 C-9.66 28 -10.32 28 -11 28 C-11 28.66 -11 29.32 -11 30 C-11.66 30 -12.32 30 -13 30 C-13 31.32 -13 32.64 -13 34 C-13.66 34 -14.32 34 -15 34 C-15 34.66 -15 35.32 -15 36 C-15.66 36 -16.32 36 -17 36 C-17 36.66 -17 37.32 -17 38 C-17.66 38 -18.32 38 -19 38 C-19 38.66 -19 39.32 -19 40 C-19.66 40 -20.32 40 -21 40 C-21 40.66 -21 41.32 -21 42 C-21.66 42 -22.32 42 -23 42 C-23 42.66 -23 43.32 -23 44 C-23.66 44 -24.32 44 -25 44 C-25 44.66 -25 45.32 -25 46 C-25.66 46 -26.32 46 -27 46 C-27 46.66 -27 47.32 -27 48 C-27.66 48 -28.32 48 -29 48 C-29 48.66 -29 49.32 -29 50 C-29.66 50 -30.32 50 -31 50 C-31 50.66 -31 51.32 -31 52 C-31.66 52 -32.32 52 -33 52 C-33 52.66 -33 53.32 -33 54 C-33.66 54 -34.32 54 -35 54 C-35 54.66 -35 55.32 -35 56 C-35.66 56 -36.32 56 -37 56 C-37 56.66 -37 57.32 -37 58 C-37.66 58 -38.32 58 -39 58 C-39 58.66 -39 59.32 -39 60 C-40.32 60 -41.64 60 -43 60 C-43 60.66 -43 61.32 -43 62 C-44.32 62 -45.64 62 -47 62 C-47 62.66 -47 63.32 -47 64 C-47.66 64 -48.32 64 -49 64 C-49 64.66 -49 65.32 -49 66 C-50.32 66 -51.64 66 -53 66 C-53 66.66 -53 67.32 -53 68 C-54.32 68 -55.64 68 -57 68 C-57 68.66 -57 69.32 -57 70 C-58.32 70 -59.64 70 -61 70 C-61 70.66 -61 71.32 -61 72 C-62.98 72 -64.96 72 -67 72 C-67 72.66 -67 73.32 -67 74 C-68.98 74 -70.96 74 -73 74 C-73 74.66 -73 75.32 -73 76 C-75.64 76 -78.28 76 -81 76 C-81 76.66 -81 77.32 -81 78 C-84.3 78 -87.6 78 -91 78 C-91 78.66 -91 79.32 -91 80 C-277.78 80 -464.56 80 -657 80 C-657 79.34 -657 78.68 -657 78 C-660.3 78 -663.6 78 -667 78 C-667 77.34 -667 76.68 -667 76 C-665.22880197 76.14133499 -663.45804713 76.28823208 -661.6875 76.4375 C-660.20830078 76.55931641 -660.20830078 76.55931641 -658.69921875 76.68359375 C-656 77 -656 77 -653 78 C-650.00388475 78.0989027 -647.0310128 78.13930032 -644.03469944 78.13422108 C-643.10187082 78.13657331 -642.16904219 78.13892554 -641.20794603 78.14134905 C-638.05256471 78.14805603 -634.89722441 78.14758031 -631.74183655 78.14717102 C-629.46836119 78.15046863 -627.19488642 78.15419398 -624.92141241 78.1583125 C-618.65032997 78.16835311 -612.37925711 78.17205263 -606.10816777 78.17470181 C-600.0462361 78.17819915 -593.98431217 78.18634614 -587.92238495 78.19424575 C-571.67187027 78.21510543 -555.42135375 78.22556425 -539.1708288 78.23437535 C-531.4798292 78.23858165 -523.78883039 78.24380382 -516.09783145 78.24905988 C-489.76254211 78.26695573 -463.42725255 78.28194899 -437.09195805 78.28938007 C-435.43799842 78.28985483 -433.7840388 78.29033072 -432.13007918 78.29080774 C-431.30986787 78.29104411 -430.48965655 78.29128049 -429.64459035 78.29152403 C-425.48905307 78.29272521 -421.33351579 78.29394066 -417.17797852 78.29516602 C-415.94096 78.29552624 -415.94096 78.29552624 -414.67895121 78.29589374 C-387.96877221 78.30377851 -361.25863774 78.32719041 -334.54847817 78.35972196 C-306.30032253 78.39406372 -278.05219291 78.41373549 -249.80401605 78.41702431 C-246.69919772 78.41744184 -243.5943794 78.4179214 -240.48956108 78.41844749 C-239.34284497 78.41863228 -239.34284497 78.41863228 -238.17296288 78.4188208 C-225.89674804 78.42114802 -213.62058505 78.43678181 -201.34438866 78.45728934 C-188.98738421 78.47760313 -176.63044167 78.48299859 -164.27342362 78.47351871 C-157.58545329 78.46877938 -150.89767074 78.47082384 -144.20971298 78.49028015 C-138.07577254 78.5079698 -131.94212105 78.50686687 -125.80817728 78.49138286 C-123.59998142 78.48901554 -121.39176524 78.49328429 -119.18360031 78.50521151 C-84.20983215 78.68227513 -53.39875087 68.66998128 -27.5625 44.55859375 C-20.63611249 37.64276476 -15.54223113 29.90751426 -10.6640625 21.4921875 C-10.11492188 20.66976562 -9.56578125 19.84734375 -9 19 C-8.34 19 -7.68 19 -7 19 C-6.84724609 17.72769531 -6.84724609 17.72769531 -6.69140625 16.4296875 C-5.92681493 12.63696899 -4.6084567 9.60912247 -2.9375 6.125 C-2.38964844 4.97257813 -1.84179688 3.82015625 -1.27734375 2.6328125 C-0.64505859 1.32957031 -0.64505859 1.32957031 0 0 Z " fill="#E8EEF2" transform="translate(755,684)"/>
<path d="M0 0 C0.33 0 0.66 0 1 0 C1 5.61 1 11.22 1 17 C73.27 16.505 73.27 16.505 147 16 C145.35 15.67 143.7 15.34 142 15 C142 14.67 142 14.34 142 14 C143.01320313 13.80083984 143.01320313 13.80083984 144.046875 13.59765625 C145.38492188 13.33275391 145.38492188 13.33275391 146.75 13.0625 C147.63171875 12.88847656 148.5134375 12.71445312 149.421875 12.53515625 C151.63235053 12.07631512 153.81512068 11.56663926 156 11 C156 11.66 156 12.32 156 13 C154.68 13.99 153.36 14.98 152 16 C233.675 16.495 233.675 16.495 317 17 C317 11.72 317 6.44 317 1 C309.74 1 302.48 1 295 1 C295 0.67 295 0.34 295 0 C302.59 0 310.18 0 318 0 C318 5.94 318 11.88 318 18 C213.06 18 108.12 18 0 18 C0 12.06 0 6.12 0 0 Z " fill="#B0C4D7" transform="translate(302,436)"/>
<path d="M0 0 C0.33 0 0.66 0 1 0 C1 1.98 1 3.96 1 6 C0.34 6 -0.32 6 -1 6 C-1 7.98 -1 9.96 -1 12 C-1.66 12 -2.32 12 -3 12 C-3 13.32 -3 14.64 -3 16 C-3.66 16 -4.32 16 -5 16 C-5 17.32 -5 18.64 -5 20 C-5.66 20 -6.32 20 -7 20 C-7 21.32 -7 22.64 -7 24 C-7.66 24 -8.32 24 -9 24 C-9 25.32 -9 26.64 -9 28 C-9.66 28 -10.32 28 -11 28 C-11 28.66 -11 29.32 -11 30 C-11.66 30 -12.32 30 -13 30 C-13 31.32 -13 32.64 -13 34 C-13.66 34 -14.32 34 -15 34 C-15 34.66 -15 35.32 -15 36 C-15.66 36 -16.32 36 -17 36 C-17 36.66 -17 37.32 -17 38 C-17.66 38 -18.32 38 -19 38 C-19 38.66 -19 39.32 -19 40 C-19.66 40 -20.32 40 -21 40 C-21 40.66 -21 41.32 -21 42 C-21.66 42 -22.32 42 -23 42 C-23 42.66 -23 43.32 -23 44 C-23.66 44 -24.32 44 -25 44 C-25 44.66 -25 45.32 -25 46 C-25.66 46 -26.32 46 -27 46 C-27 46.66 -27 47.32 -27 48 C-27.66 48 -28.32 48 -29 48 C-29 48.66 -29 49.32 -29 50 C-29.66 50 -30.32 50 -31 50 C-31 50.66 -31 51.32 -31 52 C-31.66 52 -32.32 52 -33 52 C-33 52.66 -33 53.32 -33 54 C-33.66 54 -34.32 54 -35 54 C-35 54.66 -35 55.32 -35 56 C-35.66 56 -36.32 56 -37 56 C-37 56.66 -37 57.32 -37 58 C-37.66 58 -38.32 58 -39 58 C-39 58.66 -39 59.32 -39 60 C-40.32 60 -41.64 60 -43 60 C-43 60.66 -43 61.32 -43 62 C-44.32 62 -45.64 62 -47 62 C-47 62.66 -47 63.32 -47 64 C-47.66 64 -48.32 64 -49 64 C-49 64.66 -49 65.32 -49 66 C-50.32 66 -51.64 66 -53 66 C-53 66.66 -53 67.32 -53 68 C-54.32 68 -55.64 68 -57 68 C-57 68.66 -57 69.32 -57 70 C-58.32 70 -59.64 70 -61 70 C-61 70.66 -61 71.32 -61 72 C-62.98 72 -64.96 72 -67 72 C-67 72.66 -67 73.32 -67 74 C-68.98 74 -70.96 74 -73 74 C-73 74.66 -73 75.32 -73 76 C-75.64 76 -78.28 76 -81 76 C-81 76.66 -81 77.32 -81 78 C-86.94 78.33 -92.88 78.66 -99 79 C-99 78.67 -99 78.34 -99 78 C-97.75347656 77.78085937 -96.50695312 77.56171875 -95.22265625 77.3359375 C-64.440013 71.70092166 -35.52181221 58.44356489 -17 32 C-14.80505615 28.54486757 -12.71686302 25.03347286 -10.6640625 21.4921875 C-10.11492187 20.66976562 -9.56578125 19.84734375 -9 19 C-8.34 19 -7.68 19 -7 19 C-6.89816406 18.15179687 -6.79632812 17.30359375 -6.69140625 16.4296875 C-5.92681493 12.63696899 -4.6084567 9.60912247 -2.9375 6.125 C-2.38964844 4.97257813 -1.84179688 3.82015625 -1.27734375 2.6328125 C-0.85582031 1.76398437 -0.43429687 0.89515625 0 0 Z " fill="#DFE7ED" transform="translate(755,684)"/>
<path d="M0 0 C0.33 0 0.66 0 1 0 C1.023406 26.4523471 1.04101692 52.90469265 1.05181217 79.35704803 C1.0569588 91.64054206 1.06397026 103.92402964 1.07543945 116.20751953 C1.08543632 126.91928916 1.0918653 137.63105411 1.09408849 148.34282827 C1.09538713 154.00960971 1.09841902 159.67637778 1.10573006 165.34315491 C1.11256934 170.68810193 1.11460103 176.0330302 1.11310768 181.37798119 C1.11338048 183.32890615 1.11533832 185.2798318 1.11920547 187.23075294 C1.14049055 198.53294739 0.87248185 209.72804478 0 221 C-0.66 221 -1.32 221 -2 221 C-2 223.64 -2 226.28 -2 229 C-2.66 229 -3.32 229 -4 229 C-3.88161741 227.12457057 -3.75475093 225.24967722 -3.625 223.375 C-3.55539062 222.33085938 -3.48578125 221.28671875 -3.4140625 220.2109375 C-3.22174953 217.85453537 -2.92696821 215.56719368 -2.5332737 213.23405266 C-0.78833291 202.75269923 -0.69260414 192.4677559 -0.68115234 181.86767578 C-0.67183569 179.87548422 -0.66166449 177.88329651 -0.65071106 175.89111328 C-0.6235927 170.524353 -0.60831598 165.15761869 -0.59528303 159.7908082 C-0.57957236 154.16673232 -0.55280775 148.54270887 -0.5272522 142.91867065 C-0.48060418 132.28728336 -0.44379272 121.65588606 -0.41057932 111.02444923 C-0.37225876 98.91307696 -0.32287484 86.80175753 -0.27259517 74.69042993 C-0.16948337 49.7936592 -0.08015594 24.89685448 0 0 Z " fill="#48709E" transform="translate(760,455)"/>
<path d="M0 0 C1.85546875 0.25 1.85546875 0.25 4 1 C5.23828125 2.75 5.23828125 2.75 6.3125 5 C15.35882924 22.40524743 31.12752785 36.50797753 48 46 C49.45212891 46.81984375 49.45212891 46.81984375 50.93359375 47.65625 C58.95147024 51.92084645 67.30864569 54.50730194 76 57 C76 57.33 76 57.66 76 58 C73.36 58 70.72 58 68 58 C68 57.34 68 56.68 68 56 C66.02 56 64.04 56 62 56 C62 55.34 62 54.68 62 54 C60.02 54 58.04 54 56 54 C56 53.34 56 52.68 56 52 C54.68 52 53.36 52 52 52 C52 51.34 52 50.68 52 50 C50.68 50 49.36 50 48 50 C48 49.34 48 48.68 48 48 C46.68 48 45.36 48 44 48 C44 47.34 44 46.68 44 46 C42.68 46 41.36 46 40 46 C40 45.34 40 44.68 40 44 C39.34 44 38.68 44 38 44 C38 43.34 38 42.68 38 42 C36.68 42 35.36 42 34 42 C34 41.34 34 40.68 34 40 C33.34 40 32.68 40 32 40 C32 39.34 32 38.68 32 38 C31.34 38 30.68 38 30 38 C30 37.34 30 36.68 30 36 C28.68 36 27.36 36 26 36 C26 35.34 26 34.68 26 34 C25.34 34 24.68 34 24 34 C24 33.34 24 32.68 24 32 C23.34 32 22.68 32 22 32 C22 31.34 22 30.68 22 30 C21.34 30 20.68 30 20 30 C20 29.34 20 28.68 20 28 C19.34 28 18.68 28 18 28 C18 27.34 18 26.68 18 26 C17.34 26 16.68 26 16 26 C16 25.34 16 24.68 16 24 C15.34 24 14.68 24 14 24 C14 23.34 14 22.68 14 22 C13.34 22 12.68 22 12 22 C12 20.68 12 19.36 12 18 C11.34 18 10.68 18 10 18 C10 17.34 10 16.68 10 16 C9.34 16 8.68 16 8 16 C8 14.68 8 13.36 8 12 C7.34 12 6.68 12 6 12 C6 11.34 6 10.68 6 10 C5.34 10 4.68 10 4 10 C4 8.68 4 7.36 4 6 C3.34 6 2.68 6 2 6 C2 4.68 2 3.36 2 2 C1.34 2 0.68 2 0 2 C0 1.34 0 0.68 0 0 Z " fill="#EFF1F2" transform="translate(12,702)"/>
<path d="M0 0 C1.98 0 3.96 0 6 0 C3.06452949 2.37306728 0.19767887 3.8630291 -3.25 5.375 C-24.63866775 15.87298748 -43.51500681 37.05774795 -52.6875 58.9375 C-54 62 -54 62 -56 64 C-56 62.02 -56 60.04 -56 58 C-55.34 58 -54.68 58 -54 58 C-54 56.68 -54 55.36 -54 54 C-53.34 54 -52.68 54 -52 54 C-52 52.68 -52 51.36 -52 50 C-51.34 50 -50.68 50 -50 50 C-50 48.68 -50 47.36 -50 46 C-49.34 46 -48.68 46 -48 46 C-48 44.68 -48 43.36 -48 42 C-47.34 42 -46.68 42 -46 42 C-46 41.34 -46 40.68 -46 40 C-45.34 40 -44.68 40 -44 40 C-44 38.68 -44 37.36 -44 36 C-43.34 36 -42.68 36 -42 36 C-42 35.34 -42 34.68 -42 34 C-41.34 34 -40.68 34 -40 34 C-40 33.34 -40 32.68 -40 32 C-39.34 32 -38.68 32 -38 32 C-38 31.34 -38 30.68 -38 30 C-37.34 30 -36.68 30 -36 30 C-36 29.34 -36 28.68 -36 28 C-35.34 28 -34.68 28 -34 28 C-34 27.34 -34 26.68 -34 26 C-33.34 26 -32.68 26 -32 26 C-32 25.34 -32 24.68 -32 24 C-31.34 24 -30.68 24 -30 24 C-30 23.34 -30 22.68 -30 22 C-29.34 22 -28.68 22 -28 22 C-28 21.34 -28 20.68 -28 20 C-27.34 20 -26.68 20 -26 20 C-26 19.34 -26 18.68 -26 18 C-25.34 18 -24.68 18 -24 18 C-24 17.34 -24 16.68 -24 16 C-23.34 16 -22.68 16 -22 16 C-22 15.34 -22 14.68 -22 14 C-21.34 14 -20.68 14 -20 14 C-20 13.34 -20 12.68 -20 12 C-19.34 12 -18.68 12 -18 12 C-18 11.34 -18 10.68 -18 10 C-16.68 10 -15.36 10 -14 10 C-14 9.34 -14 8.68 -14 8 C-13.34 8 -12.68 8 -12 8 C-12 7.34 -12 6.68 -12 6 C-10.68 6 -9.36 6 -8 6 C-8 5.34 -8 4.68 -8 4 C-6.68 4 -5.36 4 -4 4 C-4 3.34 -4 2.68 -4 2 C-2.68 2 -1.36 2 0 2 C0 1.34 0 0.68 0 0 Z " fill="#EDF1F3" transform="translate(64,12)"/>
<path d="M0 0 C1.32 0 2.64 0 4 0 C4 0.66 4 1.32 4 2 C4.66 2 5.32 2 6 2 C6 2.66 6 3.32 6 4 C6.66 4 7.32 4 8 4 C8 4.66 8 5.32 8 6 C8.66 6 9.32 6 10 6 C10 6.66 10 7.32 10 8 C10.66 8 11.32 8 12 8 C12 8.66 12 9.32 12 10 C12.66 10 13.32 10 14 10 C14 10.66 14 11.32 14 12 C14.66 12 15.32 12 16 12 C16 12.66 16 13.32 16 14 C16.66 14 17.32 14 18 14 C18 14.66 18 15.32 18 16 C18.66 16 19.32 16 20 16 C20 16.66 20 17.32 20 18 C20.66 18 21.32 18 22 18 C22 18.66 22 19.32 22 20 C22.66 20 23.32 20 24 20 C24 20.66 24 21.32 24 22 C24.66 22 25.32 22 26 22 C26 22.66 26 23.32 26 24 C26.66 24 27.32 24 28 24 C28 24.66 28 25.32 28 26 C28.66 26 29.32 26 30 26 C30 27.32 30 28.64 30 30 C30.66 30 31.32 30 32 30 C32 30.66 32 31.32 32 32 C32.66 32 33.32 32 34 32 C34 33.32 34 34.64 34 36 C34.66 36 35.32 36 36 36 C36 37.32 36 38.64 36 40 C36.66 40 37.32 40 38 40 C38 41.32 38 42.64 38 44 C38.66 44 39.32 44 40 44 C40 45.32 40 46.64 40 48 C40.66 48 41.32 48 42 48 C42 49.32 42 50.64 42 52 C42.66 52 43.32 52 44 52 C44 54.64 44 57.28 44 60 C44.66 60 45.32 60 46 60 C46 61.98 46 63.96 46 66 C46.66 66 47.32 66 48 66 C48 69.3 48 72.6 48 76 C47.67 76 47.34 76 47 76 C46.76925781 75.07960938 46.53851562 74.15921875 46.30078125 73.2109375 C40.80162356 51.86638077 33.04915502 34.23079238 18 18 C17.26394531 17.2059375 16.52789063 16.411875 15.76953125 15.59375 C12.76115587 12.47481537 9.77537033 9.74685878 6.1875 7.3125 C3.07874974 5.05713217 1.65701887 3.41150943 0 0 Z " fill="#EBF0F2" transform="translate(712,22)"/>
<path d="M0 0 C15.84 0 31.68 0 48 0 C48 0.66 48 1.32 48 2 C50.64 2 53.28 2 56 2 C56 2.66 56 3.32 56 4 C58.64 4 61.28 4 64 4 C64 4.66 64 5.32 64 6 C65.98 6 67.96 6 70 6 C70 6.66 70 7.32 70 8 C71.98 8 73.96 8 76 8 C76 8.66 76 9.32 76 10 C77.32 10 78.64 10 80 10 C80 10.66 80 11.32 80 12 C81.32 12 82.64 12 84 12 C84 12.66 84 13.32 84 14 C85.32 14 86.64 14 88 14 C88 14.66 88 15.32 88 16 C89.32 16 90.64 16 92 16 C92 16.66 92 17.32 92 18 C92.66 18 93.32 18 94 18 C94.99 19.98 95.98 21.96 97 24 C93.15697768 22.1444446 89.56531817 19.95231371 85.92578125 17.73046875 C84.96027344 17.15941406 83.99476563 16.58835937 83 16 C82.35885254 15.60917236 81.71770508 15.21834473 81.05712891 14.81567383 C75.182398 11.36392497 69.27166609 9.22883963 62.75 7.3125 C61.80253906 7.01794922 60.85507812 6.72339844 59.87890625 6.41992188 C46.06316431 2.27147035 32.49483364 1.63329883 18.1875 1.375 C16.41599858 1.33671831 14.64451374 1.29766111 12.87304688 1.2578125 C8.58216963 1.16294996 4.291206 1.07852687 0 1 C0 0.67 0 0.34 0 0 Z " fill="#DDE4E9" transform="translate(618,2)"/>
<path d="M0 0 C0.33 0 0.66 0 1 0 C1.02337283 8.32899626 1.04104025 16.65797836 1.05181217 24.98699951 C1.05698725 28.85625381 1.06398467 32.72548535 1.07543945 36.59472656 C1.08646262 40.34247047 1.09231707 44.09019277 1.09487724 47.83795166 C1.09669707 49.25376729 1.10024861 50.669582 1.10573006 52.08538818 C1.1428746 62.09567029 0.73151342 72.02018915 0 82 C-0.66 82 -1.32 82 -2 82 C-2 84.64 -2 87.28 -2 90 C-2.66 90 -3.32 90 -4 90 C-3.88161741 88.12457057 -3.75475093 86.24967722 -3.625 84.375 C-3.55539062 83.33085938 -3.48578125 82.28671875 -3.4140625 81.2109375 C-3.12133386 77.66873966 -2.55795021 74.19299393 -2 70.68359375 C-0.9037075 63.05443637 -0.65403939 55.55004454 -0.5859375 47.8515625 C-0.56716243 46.45908544 -0.5475847 45.066619 -0.5272522 43.67416382 C-0.47659257 40.06093701 -0.43661946 36.44767357 -0.39910889 32.83428955 C-0.35864672 29.12641848 -0.30775029 25.41869092 -0.2578125 21.7109375 C-0.16184022 14.47405788 -0.07719196 7.23710695 0 0 Z " fill="#436D9C" transform="translate(760,594)"/>
<path d="M0 0 C1.32 0 2.64 0 4 0 C4 0.66 4 1.32 4 2 C5.98 2 7.96 2 10 2 C10 2.66 10 3.32 10 4 C11.32 4 12.64 4 14 4 C14 4.66 14 5.32 14 6 C15.32 6 16.64 6 18 6 C18 6.66 18 7.32 18 8 C19.32 8 20.64 8 22 8 C22 8.66 22 9.32 22 10 C23.32 10 24.64 10 26 10 C26 10.66 26 11.32 26 12 C26.66 12 27.32 12 28 12 C28.99 13.98 29.98 15.96 31 18 C27.99649141 16.54979333 25.15885643 14.92464829 22.3125 13.1875 C13.40540446 7.76905796 13.40540446 7.76905796 4 3.3125 C1 2 1 2 0 0 Z " fill="#D2DEE7" transform="translate(684,8)"/>
<path d="M0 0 C12.21 0 24.42 0 37 0 C37.495 1.98 37.495 1.98 38 4 C37.34 3.67 36.68 3.34 36 3 C33.37372867 2.91332745 30.77437517 2.88439865 28.1484375 2.90234375 C26.98738998 2.90446617 26.98738998 2.90446617 25.80288696 2.90663147 C23.32688558 2.91223597 20.85097412 2.92478917 18.375 2.9375 C16.69791797 2.94251442 15.02083453 2.94707743 13.34375 2.95117188 C9.22913194 2.96220685 5.11458122 2.97947446 1 3 C0.67 2.01 0.34 1.02 0 0 Z " fill="#B0C7DD" transform="translate(465,516)"/>
<path d="M0 0 C0 0.66 0 1.32 0 2 C-1.32 2.99 -2.64 3.98 -4 5 C9.86 5.33 23.72 5.66 38 6 C38 6.33 38 6.66 38 7 C21.83 7 5.66 7 -11 7 C-10.34 6.34 -9.68 5.68 -9 5 C-10.65 4.67 -12.3 4.34 -14 4 C-14 3.67 -14 3.34 -14 3 C-13.30132812 2.86722656 -12.60265625 2.73445313 -11.8828125 2.59765625 C-10.51769531 2.33275391 -10.51769531 2.33275391 -9.125 2.0625 C-8.22007812 1.88847656 -7.31515625 1.71445312 -6.3828125 1.53515625 C-4.0328149 1.0073699 -2.39804152 0 0 0 Z " fill="#B7C9D9" transform="translate(458,447)"/>
<path d="M0 0 C0.33 0 0.66 0 1 0 C1.1858667 0.71019287 1.3717334 1.42038574 1.56323242 2.15209961 C2.42544769 5.41735799 3.30631855 8.67731109 4.1875 11.9375 C4.47947266 13.05447266 4.77144531 14.17144531 5.07226562 15.32226562 C6.7635365 21.52359215 8.68041202 26.85541544 12.13793945 32.29516602 C12.42241943 32.85776123 12.70689941 33.42035645 13 34 C12.67 34.66 12.34 35.32 12 36 C11.34 35.67 10.68 35.34 10 35 C10 34.34 10 33.68 10 33 C9.34 33 8.68 33 8 33 C8 31.68 8 30.36 8 29 C7.34 29 6.68 29 6 29 C6 27.02 6 25.04 6 23 C5.34 23 4.68 23 4 23 C4 21.02 4 19.04 4 17 C3.34 17 2.68 17 2 17 C2 14.36 2 11.72 2 9 C1.34 9 0.68 9 0 9 C0 6.03 0 3.06 0 0 Z " fill="#D9E1E8" transform="translate(2,667)"/>
<path d="M0 0 C14.85 0 29.7 0 45 0 C45.495 4.455 45.495 4.455 46 9 C45.01 8.67 44.02 8.34 43 8 C43.33 5.69 43.66 3.38 44 1 C29.81 1 15.62 1 1 1 C0.67 1.66 0.34 2.32 0 3 C0 2.01 0 1.02 0 0 Z " fill="#2A619B" transform="translate(437,226)"/>
<path d="M0 0 C-0.66 0.99 -1.32 1.98 -2 3 C-5.125 3.1875 -5.125 3.1875 -8 3 C-8 3.66 -8 4.32 -8 5 C-10.64 5 -13.28 5 -16 5 C-16 5.66 -16 6.32 -16 7 C-21.94 7.33 -27.88 7.66 -34 8 C-34 7.67 -34 7.34 -34 7 C-33.45698242 6.89977539 -32.91396484 6.79955078 -32.35449219 6.69628906 C-22.71222228 4.89677953 -13.30760071 3.13844843 -4.1171875 -0.36328125 C-2 -1 -2 -1 0 0 Z " fill="#CEDEEC" transform="translate(690,755)"/>
<path d="M0 0 C0.33 0 0.66 0 1 0 C4.44898685 27.82651973 4.44898685 27.82651973 -1 36 C-0.67 24.12 -0.34 12.24 0 0 Z " fill="#4575A7" transform="translate(353,227)"/>
<path d="M0 0 C1.05123462 3.19726207 0.9463602 5.02186058 -0.14453125 8.1875 C-0.54188477 9.35925781 -0.54188477 9.35925781 -0.94726562 10.5546875 C-1.37555664 11.76511719 -1.37555664 11.76511719 -1.8125 13 C-2.08642578 13.80695313 -2.36035156 14.61390625 -2.64257812 15.4453125 C-3.91256284 19.1364911 -5.24563678 22.49127357 -7 26 C-7 22.7 -7 19.4 -7 16 C-6.34 16 -5.68 16 -5 16 C-5 13.36 -5 10.72 -5 8 C-4.34 8 -3.68 8 -3 8 C-3 6.02 -3 4.04 -3 2 C-2.01 2 -1.02 2 0 2 C0 1.34 0 0.68 0 0 Z " fill="#C3D2DF" transform="translate(9,74)"/>
<path d="M0 0 C0.33 0 0.66 0 1 0 C0.67 7.26 0.34 14.52 0 22 C-0.66 22 -1.32 22 -2 22 C-2 24.64 -2 27.28 -2 30 C-2.66 30 -3.32 30 -4 30 C-3.48612661 19.81113109 -1.90534337 10.0060485 0 0 Z " fill="#93ADC5" transform="translate(760,654)"/>
<path d="M0 0 C5.28 0 10.56 0 16 0 C11.12853766 3.24764156 6.70772611 3.12216054 0.94921875 3.09765625 C0.29041214 3.0962413 -0.36839447 3.09482635 -1.04716492 3.09336853 C-3.13565762 3.087805 -5.22404011 3.07525947 -7.3125 3.0625 C-8.73502449 3.05748028 -10.15755066 3.0529182 -11.58007812 3.04882812 C-15.05342077 3.03784757 -18.52669961 3.02060835 -22 3 C-22 2.67 -22 2.34 -22 2 C-14.74 1.67 -7.48 1.34 0 1 C0 0.67 0 0.34 0 0 Z " fill="#4577AA" transform="translate(283,348)"/>
<path d="M0 0 C0.66 0.33 1.32 0.66 2 1 C-0.69053051 4.24446326 -3.39321983 7.47765829 -6.125 10.6875 C-6.60195313 11.24824219 -7.07890625 11.80898438 -7.5703125 12.38671875 C-8.99043798 13.98921007 -10.47051611 15.50219182 -12 17 C-12.99 16.67 -13.98 16.34 -15 16 C-10.13036358 10.52436438 -5.24944351 5.1148424 0 0 Z " fill="#3469A1" transform="translate(41,30)"/>
<path d="M0 0 C-3.41791703 3.41791703 -7.93713864 3.95004248 -12.62109375 4.06347656 C-15.42066768 3.97512122 -18.20572473 3.81770864 -21 3.625 C-21.96550781 3.56828125 -22.93101562 3.5115625 -23.92578125 3.453125 C-26.2847499 3.31298825 -28.64243032 3.16173133 -31 3 C-31 2.67 -31 2.34 -31 2 C-29.80503906 1.95101562 -28.61007813 1.90203125 -27.37890625 1.8515625 C-17.42064403 1.52003287 -17.42064403 1.52003287 -7.625 -0.125 C-4.18527433 -0.95527861 -3.177972 -0.99399124 0 0 Z " fill="#265D99" transform="translate(283,650)"/>
<path d="M0 0 C0.66 0.33 1.32 0.66 2 1 C-4.6 7.6 -11.2 14.2 -18 21 C-18.66 20.67 -19.32 20.34 -20 20 C-13.97501417 13.25511696 -7.98873663 6.77411663 -1 1 C-0.67 0.67 -0.34 0.34 0 0 Z " fill="#D7E3EC" transform="translate(182,143)"/>
<path d="M0 0 C5.94 0.33 11.88 0.66 18 1 C18 1.66 18 2.32 18 3 C20.64 3 23.28 3 26 3 C26 3.66 26 4.32 26 5 C26.99 5.33 27.98 5.66 29 6 C25.9246605 7.53766975 23.91081806 6.20218188 20.6875 5.1875 C13.84675855 3.14305917 7.09017941 1.89510571 0 1 C0 0.67 0 0.34 0 0 Z " fill="#BFD0DF" transform="translate(656,3)"/>
<path d="M0 0 C0.85335937 0.2990625 1.70671875 0.598125 2.5859375 0.90625 C6.99311675 2.31816097 11.45515188 3.24912348 15.9765625 4.21875 C19 5 19 5 23 7 C18.545 7.495 18.545 7.495 14 8 C14.33 7.01 14.66 6.02 15 5 C13.948125 5.20625 12.89625 5.4125 11.8125 5.625 C7.9338646 6.00650512 6.39679561 5.69839781 3 4 C2.01 3.67 1.02 3.34 0 3 C0 2.01 0 1.02 0 0 Z " fill="#4476AB" transform="translate(229,645)"/>
<path d="M0 0 C1.32 0.66 2.64 1.32 4 2 C2.625 3.5 2.625 3.5 1 5 C0.34 5 -0.32 5 -1 5 C-1.28875 5.78375 -1.5775 6.5675 -1.875 7.375 C-3 10 -3 10 -5 12 C-5.66 12 -6.32 12 -7 12 C-5.44298069 7.32894208 -2.91552627 3.91294315 0 0 Z " fill="#346CA2" transform="translate(527,606)"/>
<path d="M0 0 C1.32 0 2.64 0 4 0 C4 0.66 4 1.32 4 2 C5.98 2 7.96 2 10 2 C10 2.66 10 3.32 10 4 C11.32 4 12.64 4 14 4 C14 4.66 14 5.32 14 6 C15.32 6 16.64 6 18 6 C18 6.66 18 7.32 18 8 C12.0341477 6.6983595 6.35786399 5.00134175 1 2 C0.67 1.34 0.34 0.68 0 0 Z " fill="#E5ECF0" transform="translate(684,8)"/>
<path d="M0 0 C0.33 0.66 0.66 1.32 1 2 C0.67 2.99 0.34 3.98 0 5 C-0.66 5 -1.32 5 -2 5 C-2 5.66 -2 6.32 -2 7 C-2.66 7 -3.32 7 -4 7 C-4 7.66 -4 8.32 -4 9 C-4.66 9 -5.32 9 -6 9 C-6 9.66 -6 10.32 -6 11 C-6.66 11 -7.32 11 -8 11 C-8 11.66 -8 12.32 -8 13 C-8.66 13 -9.32 13 -10 13 C-10 13.66 -10 14.32 -10 15 C-11.32 14.67 -12.64 14.34 -14 14 C-13.32453125 13.40832031 -12.6490625 12.81664062 -11.953125 12.20703125 C-11.06109375 11.41683594 -10.1690625 10.62664063 -9.25 9.8125 C-8.36828125 9.03519531 -7.4865625 8.25789062 -6.578125 7.45703125 C-4.12113732 5.11544754 -2.05137234 2.69841735 0 0 Z " fill="#D7DEE5" transform="translate(734,721)"/>
<path d="M0 0 C1.6097168 0.07250977 1.6097168 0.07250977 3.25195312 0.14648438 C4.37150391 0.20255859 5.49105469 0.25863281 6.64453125 0.31640625 C8.34125977 0.3947168 8.34125977 0.3947168 10.07226562 0.47460938 C12.86746405 0.60434432 15.66231065 0.73931266 18.45703125 0.87890625 C18.45703125 1.20890625 18.45703125 1.53890625 18.45703125 1.87890625 C17.78647705 1.9039624 17.11592285 1.92901855 16.42504883 1.95483398 C13.37303535 2.07121426 10.32129867 2.19374973 7.26953125 2.31640625 C6.21443359 2.35572266 5.15933594 2.39503906 4.07226562 2.43554688 C2.53989258 2.49838867 2.53989258 2.49838867 0.9765625 2.5625 C-0.42952271 2.61748657 -0.42952271 2.61748657 -1.86401367 2.67358398 C-4.49411857 2.87516224 -6.97063289 3.30568946 -9.54296875 3.87890625 C-9.21296875 2.88890625 -8.88296875 1.89890625 -8.54296875 0.87890625 C-5.3500005 -0.1854165 -3.33851934 -0.15897711 0 0 Z " fill="#4675A8" transform="translate(251.54296875,513.12109375)"/>
<path d="M0 0 C2 1.3125 2 1.3125 4 4 C4.36089448 7.68855385 4.22933459 11.3051649 4 15 C-0.17737474 16.59138085 -3.53160785 17.21278058 -8 17 C-8 16.67 -8 16.34 -8 16 C-3.545 15.505 -3.545 15.505 1 15 C2.77882289 9.66353134 2.44723163 5.04741524 0 0 Z " fill="#83A7CB" transform="translate(239,259)"/>
<path d="M0 0 C0.66 0.33 1.32 0.66 2 1 C-1.35779075 6.39644941 -4.27679948 9.34279976 -10 12 C-7.49653351 7.14032976 -3.91447559 3.72143296 0 0 Z " fill="#3D73A8" transform="translate(187,162)"/>
<path d="M0 0 C0.99 0 1.98 0 3 0 C2.52412884 6.02770138 -0.19722957 10.76678289 -3 16 C-3.33 16 -3.66 16 -4 16 C-4 14.02 -4 12.04 -4 10 C-3.01 9.67 -2.02 9.34 -1 9 C-1.33 8.01 -1.66 7.02 -2 6 C-1.01 5.67 -0.02 5.34 1 5 C0.67 3.35 0.34 1.7 0 0 Z " fill="#3E6A9A" transform="translate(753,681)"/>
<path d="M0 0 C1.53617893 2.04823857 2.06549977 3.4559293 1.7578125 6.01171875 C1.27462334 8.08199846 0.81012793 10.03318942 0 12 C-0.99 12.495 -0.99 12.495 -2 13 C-3.13350534 15.01669827 -3.13350534 15.01669827 -4 17 C-4.33 16.34 -4.66 15.68 -5 15 C-4.30551274 13.04882151 -3.60269439 11.09970795 -2.8359375 9.17578125 C-1.6789732 6.16443025 -0.842945 3.11241232 0 0 Z " fill="#507EAE" transform="translate(402,270)"/>
<path d="M0 0 C8.28982104 -0.43630637 15.95969329 1.22032737 24 3 C18.26974958 4.59884219 13.2950998 4.81302177 8 2 C5.3365821 1.5302887 2.69449525 1.26944952 0 1 C0 0.67 0 0.34 0 0 Z " fill="#467BAF" transform="translate(279,132)"/>
<path d="M0 0 C0.66 0 1.32 0 2 0 C2 5.61 2 11.22 2 17 C1.67 17 1.34 17 1 17 C0.67 13.7 0.34 10.4 0 7 C-0.99 7 -1.98 7 -3 7 C-1.125 2.25 -1.125 2.25 0 0 Z " fill="#C3D3E3" transform="translate(477,419)"/>
<path d="M0 0 C0.66 0.33 1.32 0.66 2 1 C1.67 2.65 1.34 4.3 1 6 C0.34 6 -0.32 6 -1 6 C-1.28875 6.78375 -1.5775 7.5675 -1.875 8.375 C-3 11 -3 11 -5 13 C-5.33 12.01 -5.66 11.02 -6 10 C-4.1875 6.8125 -4.1875 6.8125 -2 4 C-1.34 4 -0.68 4 0 4 C-0.33 3.01 -0.66 2.02 -1 1 C-0.67 0.67 -0.34 0.34 0 0 Z " fill="#366499" transform="translate(747,697)"/>
<path d="M0 0 C0 0.66 0 1.32 0 2 C-2.25 4.1875 -2.25 4.1875 -5 6 C-7 5.8125 -7 5.8125 -9 5 C-10.66519519 4.65939189 -12.33157466 4.32441604 -14 4 C-14 3.67 -14 3.34 -14 3 C-13.30132812 2.86722656 -12.60265625 2.73445313 -11.8828125 2.59765625 C-10.51769531 2.33275391 -10.51769531 2.33275391 -9.125 2.0625 C-8.22007812 1.88847656 -7.31515625 1.71445312 -6.3828125 1.53515625 C-4.0328149 1.0073699 -2.39804152 0 0 0 Z " fill="#D9E2E9" transform="translate(458,447)"/>
<path d="M0 0 C1.43410153 3.78819273 0.51009497 6.06521279 -0.9375 9.75 C-1.31777344 10.73484375 -1.69804688 11.7196875 -2.08984375 12.734375 C-2.39019531 13.48203125 -2.69054687 14.2296875 -3 15 C-3.96661363 11.87819599 -3.98988909 9.47916205 -3.5625 6.25 C-3.46066406 5.45078125 -3.35882813 4.6515625 -3.25390625 3.828125 C-3.17011719 3.22484375 -3.08632812 2.6215625 -3 2 C-2.01 2 -1.02 2 0 2 C0 1.34 0 0.68 0 0 Z " fill="#92AECA" transform="translate(9,74)"/>
<path d="M0 0 C0.33 1.32 0.66 2.64 1 4 C0.34 4 -0.32 4 -1 4 C-1 4.66 -1 5.32 -1 6 C-1.66 6 -2.32 6 -3 6 C-3 6.66 -3 7.32 -3 8 C-3.66 8 -4.32 8 -5 8 C-5 8.66 -5 9.32 -5 10 C-5.66 9.67 -6.32 9.34 -7 9 C-3.375 2.25 -3.375 2.25 0 0 Z " fill="#EDEFF1" transform="translate(741,714)"/>
<path d="M0 0 C0.65234375 1.734375 0.65234375 1.734375 1 4 C0.00390625 6.140625 0.00390625 6.140625 -1.4375 8.25 C-1.91058594 8.95640625 -2.38367188 9.6628125 -2.87109375 10.390625 C-3.24363281 10.92171875 -3.61617188 11.4528125 -4 12 C-4.66 11.67 -5.32 11.34 -6 11 C-4.54955729 6.89041233 -2.48889248 3.56741255 0 0 Z " fill="#3B6FA5" transform="translate(509,633)"/>
<path d="M0 0 C0.66 0.33 1.32 0.66 2 1 C0 4 0 4 -1.875 4.875 C-4.69895864 6.37003693 -6.12475853 8.45502944 -8 11 C-8.99 10.67 -9.98 10.34 -11 10 C-3.70159453 2.51708428 -3.70159453 2.51708428 0 0 Z " fill="#336BA4" transform="translate(242,546)"/>
<path d="M0 0 C2.31 0.66 4.62 1.32 7 2 C7 2.66 7 3.32 7 4 C2.56923077 6.09230769 2.56923077 6.09230769 -0.3125 5.625 C-0.869375 5.41875 -1.42625 5.2125 -2 5 C-1.34 5 -0.68 5 0 5 C0 3.35 0 1.7 0 0 Z " fill="#4174A7" transform="translate(434,385)"/>
<path d="M0 0 C1.58468677 0.45363171 3.16769924 0.91311452 4.75 1.375 C5.63171875 1.63023437 6.5134375 1.88546875 7.421875 2.1484375 C9.76080572 2.9209934 11.83442562 3.83625676 14 5 C11.36 5 8.72 5 6 5 C6 4.34 6 3.68 6 3 C4.02 3 2.04 3 0 3 C0 2.01 0 1.02 0 0 Z " fill="#DCE4EC" transform="translate(74,755)"/>
<path d="M0 0 C0 0.33 0 0.66 0 1 C-1.98 1 -3.96 1 -6 1 C-6.268125 1.598125 -6.53625 2.19625 -6.8125 2.8125 C-7.99917406 4.99847854 -9.09599113 6.41332594 -11 8 C-11.66 8 -12.32 8 -13 8 C-10.15054522 1.35127217 -7.28443449 -0.56034111 0 0 Z " fill="#C2D3E4" transform="translate(211,183)"/>
<path d="M0 0 C-0.99 1.485 -0.99 1.485 -2 3 C-4.8203125 3.51171875 -4.8203125 3.51171875 -8.125 3.6875 C-9.76855469 3.78611328 -9.76855469 3.78611328 -11.4453125 3.88671875 C-12.28835938 3.92410156 -13.13140625 3.96148438 -14 4 C-11.37350692 2.24900461 -9.38191413 1.30690675 -6.4375 0.3125 C-5.65246094 0.04050781 -4.86742187 -0.23148438 -4.05859375 -0.51171875 C-2 -1 -2 -1 0 0 Z " fill="#C4D7E7" transform="translate(690,755)"/>
<path d="M0 0 C0.33 0 0.66 0 1 0 C2.8417395 5.64800112 3.54775239 11.08507728 4 17 C3.34 17 2.68 17 2 17 C2 14.36 2 11.72 2 9 C1.34 9 0.68 9 0 9 C0 6.03 0 3.06 0 0 Z " fill="#E0E6EB" transform="translate(2,667)"/>
<path d="M0 0 C1 2 1 2 0.5 3.875 C-0.06796534 6.28885269 0.25055468 7.66839233 1 10 C-1 10 -1 10 -2.75 8.3125 C-4 6 -4 6 -3.3125 3.3125 C-2 1 -2 1 0 0 Z " fill="#2D659F" transform="translate(551,577)"/>
<path d="M0 0 C7.33333333 -0.36666667 7.33333333 -0.36666667 10.5 1.375 C12 3 12 3 12 5 C10.37276701 4.54965877 8.74826336 4.08944646 7.125 3.625 C5.76761719 3.24214844 5.76761719 3.24214844 4.3828125 2.8515625 C2 2 2 2 0 0 Z " fill="#4D7BAC" transform="translate(284,518)"/>
<path d="M0 0 C0.75 1.625 0.75 1.625 1 4 C-2.136 9.712 -2.136 9.712 -6 11 C-4.54955729 6.89041233 -2.48889248 3.56741255 0 0 Z " fill="#4576AA" transform="translate(390,301)"/>
<path d="M0 0 C0.66 0.99 1.32 1.98 2 3 C-0.97 5.475 -0.97 5.475 -4 8 C-4.66 7.34 -5.32 6.68 -6 6 C-4.02 4.02 -2.04 2.04 0 0 Z " fill="#366AA0" transform="translate(309,541)"/>
<path d="M0 0 C0.99 0 1.98 0 3 0 C3.69710731 1.28650706 4.38242876 2.57940665 5.0625 3.875 C5.63677734 4.95394531 5.63677734 4.95394531 6.22265625 6.0546875 C6.47917969 6.69664062 6.73570312 7.33859375 7 8 C6.67 8.66 6.34 9.32 6 10 C2.63408573 7.27521226 1.55773724 3.93143208 0 0 Z " fill="#366CA2" transform="translate(143,293)"/>
<path d="M0 0 C0 0.33 0 0.66 0 1 C-2.31 1 -4.62 1 -7 1 C-7.2475 1.61875 -7.495 2.2375 -7.75 2.875 C-9.20628639 5.35068687 -10.37812506 5.95125002 -13 7 C-9.87303606 0.02446506 -7.37889653 -0.36289655 0 0 Z " fill="#C5D6E7" transform="translate(238,204)"/>
<path d="M0 0 C3.21365891 1.10815825 3.9914224 1.98529554 5.75 5 C7 8 7 8 7 10 C2.57320993 8.52440331 2.08567304 6.09942632 0 2 C0 1.34 0 0.68 0 0 Z " fill="#30669D" transform="translate(370,186)"/>
<path d="M0 0 C2.31 0 4.62 0 7 0 C7.33 2.97 7.66 5.94 8 9 C7.01 8.67 6.02 8.34 5 8 C5.33 5.69 5.66 3.38 6 1 C4.02 1 2.04 1 0 1 C0 0.67 0 0.34 0 0 Z " fill="#4578A8" transform="translate(475,226)"/>
<path d="M0 0 C0.66 0 1.32 0 2 0 C0.54821438 3.38749978 -1.36940603 5.45161209 -4 8 C-4.66 8.99 -5.32 9.98 -6 11 C-5.55491959 5.95575532 -3.39019075 3.55556591 0 0 Z " fill="#C8DAE8" transform="translate(256,224)"/>
<path d="M0 0 C0 0.66 0 1.32 0 2 C-0.804375 2.474375 -1.60875 2.94875 -2.4375 3.4375 C-5.2918076 4.79983672 -5.2918076 4.79983672 -6 8 C-6.66 7.34 -7.32 6.68 -8 6 C-8 5.01 -8 4.02 -8 3 C-2.25 0 -2.25 0 0 0 Z " fill="#C8D7E4" transform="translate(336,373)"/>
<path d="M0 0 C0.33 0 0.66 0 1 0 C1.25 7.625 1.25 7.625 -1 11 C-2.0257259 6.58937864 -2.03684712 4.07369424 0 0 Z " fill="#4174A6" transform="translate(202,218)"/>
<path d="M0 0 C0.66 0.33 1.32 0.66 2 1 C0.35 2.98 -1.3 4.96 -3 7 C-4.32 6.67 -5.64 6.34 -7 6 C-4.69 4.02 -2.38 2.04 0 0 Z " fill="#346BA1" transform="translate(197,154)"/>
<path d="M0 0 C-2 2 -2 2 -4.6015625 2.1953125 C-5.59929687 2.17210937 -6.59703125 2.14890625 -7.625 2.125 C-9.12933594 2.09792969 -9.12933594 2.09792969 -10.6640625 2.0703125 C-11.43492187 2.04710937 -12.20578125 2.02390625 -13 2 C-13 1.67 -13 1.34 -13 1 C-11.58622218 0.63447197 -10.16879424 0.28304505 -8.75 -0.0625 C-7.96109375 -0.25972656 -7.1721875 -0.45695313 -6.359375 -0.66015625 C-3.89605178 -1.01497267 -2.34395868 -0.76877544 0 0 Z " fill="#3268A1" transform="translate(283,650)"/>
<path d="M0 0 C1 3 1 3 0.00390625 5.04296875 C-0.47175781 5.75066406 -0.94742188 6.45835937 -1.4375 7.1875 C-1.91058594 7.90292969 -2.38367188 8.61835937 -2.87109375 9.35546875 C-3.24363281 9.89816406 -3.61617187 10.44085937 -4 11 C-4.625 9.1875 -4.625 9.1875 -5 7 C-4.34 6.01 -3.68 5.02 -3 4 C-2.34 4 -1.68 4 -1 4 C-0.67 2.68 -0.34 1.36 0 0 Z " fill="#2E619A" transform="translate(551,521)"/>
<path d="M0 0 C0.66 0 1.32 0 2 0 C1.25 4.75 1.25 4.75 -1 7 C-1.99 7.33 -2.98 7.66 -4 8 C-2.87548273 5.0280615 -1.77706209 2.66559313 0 0 Z " fill="#4877AB" transform="translate(588,520)"/>
<path d="M0 0 C0.66 0.33 1.32 0.66 2 1 C-2.75 5.875 -2.75 5.875 -5 7 C-5.66 6.34 -6.32 5.68 -7 5 C-4.69 3.35 -2.38 1.7 0 0 Z " fill="#4375A8" transform="translate(353,342)"/>
<path d="M0 0 C1.32 0 2.64 0 4 0 C4 0.66 4 1.32 4 2 C4.66 2 5.32 2 6 2 C6.33 3.65 6.66 5.3 7 7 C3.17053157 5.54744301 1.87949705 3.57104439 0 0 Z " fill="#EDF2F4" transform="translate(712,22)"/>
<path d="M0 0 C1.875 0.125 1.875 0.125 4 1 C5.25 4.0625 5.25 4.0625 6 7 C4.68 6.67 3.36 6.34 2 6 C2 4.68 2 3.36 2 2 C1.34 2 0.68 2 0 2 C0 1.34 0 0.68 0 0 Z " fill="#E4E9EE" transform="translate(12,702)"/>
<path d="M0 0 C1.90318884 2.85478326 2.4619099 4.41941308 3.125 7.6875 C3.29257813 8.49574219 3.46015625 9.30398438 3.6328125 10.13671875 C3.75398437 10.75160156 3.87515625 11.36648438 4 12 C3.01 12 2.02 12 1 12 C0.67 8.04 0.34 4.08 0 0 Z " fill="#BECDDB" transform="translate(5,678)"/>
<path d="M0 0 C0.33 0.66 0.66 1.32 1 2 C-0.25 4.625 -0.25 4.625 -2 7 C-2.99 7 -3.98 7 -5 7 C-3.75023244 3.34683329 -3.32901247 2.21934164 0 0 Z " fill="#3E6FA3" transform="translate(474,396)"/>
<path d="M0 0 C0.33 0 0.66 0 1 0 C1.25 2.25 1.25 2.25 1 5 C-1 7.3125 -1 7.3125 -3 9 C-3.33 8.34 -3.66 7.68 -4 7 C-3.22265625 5.2734375 -3.22265625 5.2734375 -2.0625 3.375 C-1.381875 2.26125 -0.70125 1.1475 0 0 Z " fill="#3B6EA5" transform="translate(395,292)"/>
<path d="M0 0 C2.3125 0.1875 2.3125 0.1875 5 1 C6.8125 3.5625 6.8125 3.5625 8 6 C4.08597051 4.73058503 2.20927127 3.48832306 0 0 Z " fill="#3D6E9F" transform="translate(44,737)"/>
<path d="M0 0 C0.66 0.33 1.32 0.66 2 1 C1.67 2.32 1.34 3.64 1 5 C0.34 5 -0.32 5 -1 5 C-1.66 6.32 -2.32 7.64 -3 9 C-2.5020163 5.26512223 -2.12508244 3.18762365 0 0 Z " fill="#4C80B3" transform="translate(227,561)"/>
<path d="M0 0 C2.95409701 1.37154504 5.44008376 2.98863724 8 5 C5 6 5 6 2.3125 4.75 C1.549375 4.1725 0.78625 3.595 0 3 C0 2.01 0 1.02 0 0 Z " fill="#30649A" transform="translate(331,401)"/>
<path d="M0 0 C0 3.90838866 -1.50567876 5.11594107 -4 8 C-5.32 7.67 -6.64 7.34 -8 7 C-5.36 4.69 -2.72 2.38 0 0 Z " fill="#4175AB" transform="translate(494,278)"/>
<path d="M0 0 C3 4 3 4 2.6875 7.75 C2.460625 8.8225 2.23375 9.895 2 11 C1.67 11 1.34 11 1 11 C0.67 7.37 0.34 3.74 0 0 Z " fill="#2E649B" transform="translate(621,211)"/>
<path d="M0 0 C3.0916909 2.52956528 3.90931332 5.22454612 5 9 C3.0625 8.4375 3.0625 8.4375 1 7 C0.25 3.375 0.25 3.375 0 0 Z " fill="#4D78A6" transform="translate(745,60)"/>
<path d="M0 0 C2.40072955 2.88087546 4.47291037 5.56404834 6 9 C2.83884224 7.63016497 2.0072908 7.0109362 0 4 C0 2.68 0 1.36 0 0 Z " fill="#30679F" transform="translate(549,637)"/>
<path d="M0 0 C3.34373475 0.55728913 6.03312999 1.35173889 9 3 C9 3.66 9 4.32 9 5 C5.51694958 4.35499066 2.93797836 2.95865224 0 1 C0 0.67 0 0.34 0 0 Z " fill="#1A5290" transform="translate(220,642)"/>
<path d="M0 0 C-0.33 0.66 -0.66 1.32 -1 2 C-4.63 2 -8.26 2 -12 2 C-7.89783794 -0.73477471 -4.73617773 -1.57872591 0 0 Z " fill="#5A88B7" transform="translate(310,365)"/>
<path d="M0 0 C1.04449911 3.13349732 0.93423645 3.98968256 0 7 C-0.66 7 -1.32 7 -2 7 C-2.33 7.66 -2.66 8.32 -3 9 C-2.5020163 5.26512223 -2.12508244 3.18762365 0 0 Z " fill="#4F81B3" transform="translate(206,209)"/>
<path d="M0 0 C0.33 0 0.66 0 1 0 C1 2.31 1 4.62 1 7 C-0.32 7.33 -1.64 7.66 -3 8 C-2.01 5.36 -1.02 2.72 0 0 Z " fill="#D0DAE1" transform="translate(751,693)"/>
<path d="M0 0 C0.6875 1.8125 0.6875 1.8125 1 4 C-0.3125 5.75 -0.3125 5.75 -2 7 C-2.66 7 -3.32 7 -4 7 C-2.92598892 4.08482708 -2.22189824 2.22189824 0 0 Z " fill="#4475A9" transform="translate(564,556)"/>
<path d="M0 0 C2.97 0.33 5.94 0.66 9 1 C9 1.99 9 2.98 9 4 C6.03 3.01 3.06 2.02 0 1 C0 0.67 0 0.34 0 0 Z " fill="#3F70A3" transform="translate(425,362)"/>
<path d="M0 0 C1.125 3.75 1.125 3.75 0 6 C0.99 6.33 1.98 6.66 3 7 C1.35 7.33 -0.3 7.66 -2 8 C-1.125 2.25 -1.125 2.25 0 0 Z " fill="#B1C7D9" transform="translate(416,282)"/>
<path d="M0 0 C0.33 0 0.66 0 1 0 C1 1.65 1 3.3 1 5 C0.34 5 -0.32 5 -1 5 C-1.66 6.32 -2.32 7.64 -3 9 C-2.5020163 5.26512223 -2.12508244 3.18762365 0 0 Z " fill="#4B7FB4" transform="translate(237,223)"/>
</svg>
